<svg width="32" height="32" viewBox="0 0 32 32" fill="none" xmlns="http://www.w3.org/2000/svg">
<path d="M20.667 9.99992C20.667 10.6128 20.5463 11.2196 20.3118 11.7858C20.0772 12.352 19.7335 12.8664 19.3002 13.2998C18.8668 13.7331 18.3524 14.0768 17.7862 14.3114C17.22 14.5459 16.6132 14.6666 16.0003 14.6666C15.3875 14.6666 14.7807 14.5459 14.2145 14.3114C13.6483 14.0768 13.1338 13.7331 12.7005 13.2998C12.2672 12.8664 11.9234 12.352 11.6889 11.7858C11.4544 11.2196 11.3337 10.6128 11.3337 9.99992C11.3337 8.76224 11.8253 7.57526 12.7005 6.70009C13.5757 5.82492 14.7626 5.33325 16.0003 5.33325C17.238 5.33325 18.425 5.82492 19.3002 6.70009C20.1753 7.57526 20.667 8.76224 20.667 9.99992ZM24.0003 21.9999C24.0003 24.5773 20.419 26.6666 16.0003 26.6666C11.5817 26.6666 8.00033 24.5773 8.00033 21.9999C8.00033 19.4226 11.5817 17.3333 16.0003 17.3333C20.419 17.3333 24.0003 19.4226 24.0003 21.9999ZM9.49633 6.66659C9.73366 6.66659 9.96388 6.68881 10.187 6.73325C9.62696 7.73088 9.33309 8.85585 9.33366 9.99992C9.33366 11.1573 9.62833 12.2466 10.147 13.1946C9.93633 13.2346 9.71944 13.2546 9.49633 13.2546C7.61099 13.2546 6.08166 11.7799 6.08166 9.96125C6.08166 8.14259 7.61099 6.66659 9.49633 6.66659ZM7.26299 25.3146C6.50699 24.4093 6.00033 23.2986 6.00033 21.9999C6.00033 20.7413 6.47633 19.6586 7.19499 18.7693C4.65366 18.9666 2.66699 20.3559 2.66699 22.0386C2.66699 23.7386 4.68966 25.1386 7.26299 25.3146ZM22.667 9.99992C22.667 11.1573 22.3723 12.2466 21.8537 13.1946C22.0634 13.2346 22.2803 13.2546 22.5043 13.2546C24.3897 13.2546 25.9177 11.7799 25.9177 9.96125C25.9177 8.14259 24.391 6.66659 22.5057 6.66659C22.2683 6.66659 22.0381 6.68881 21.815 6.73325C22.3577 7.69859 22.667 8.81325 22.667 9.99992ZM24.7377 25.3146C27.311 25.1386 29.3337 23.7386 29.3337 22.0386C29.3337 20.3546 27.3457 18.9666 24.8057 18.7693C25.5257 19.6586 26.0003 20.7413 26.0003 21.9999C26.0003 23.2986 25.4937 24.4093 24.7377 25.3146Z" fill="#4B6BFB"/>
</svg>
