<svg width="32" height="32" viewBox="0 0 32 32" fill="none" xmlns="http://www.w3.org/2000/svg">
<path fill-rule="evenodd" clip-rule="evenodd" d="M16.0001 21.3334C18.4754 21.3334 20.8494 20.35 22.5997 18.5997C24.3501 16.8493 25.3334 14.4754 25.3334 12C25.3334 9.52467 24.3501 7.1507 22.5997 5.40036C20.8494 3.65002 18.4754 2.66669 16.0001 2.66669C13.5247 2.66669 11.1508 3.65002 9.40042 5.40036C7.65008 7.1507 6.66675 9.52467 6.66675 12C6.66675 14.4754 7.65008 16.8493 9.40042 18.5997C11.1508 20.35 13.5247 21.3334 16.0001 21.3334ZM16.0001 8.00002C15.6214 8.00002 15.3681 8.45335 14.8614 9.36402L14.7307 9.59869C14.5867 9.85735 14.5147 9.98535 14.4027 10.0707C14.2894 10.156 14.1494 10.188 13.8694 10.2507L13.6161 10.3094C12.6321 10.532 12.1401 10.6427 12.0227 11.0187C11.9054 11.3947 12.2414 11.788 12.9121 12.572L13.0854 12.7747C13.2761 12.9974 13.3721 13.108 13.4147 13.2467C13.4574 13.3854 13.4427 13.5334 13.4147 13.8307L13.3881 14.1014C13.2867 15.148 13.2361 15.672 13.5414 15.904C13.8481 16.136 14.3094 15.924 15.2307 15.5L15.4681 15.3907C15.7307 15.2707 15.8614 15.2107 16.0001 15.2107C16.1387 15.2107 16.2694 15.2707 16.5321 15.3907L16.7694 15.5C17.6907 15.9254 18.1521 16.136 18.4587 15.904C18.7654 15.672 18.7134 15.148 18.6121 14.1014L18.5854 13.8307C18.5574 13.5334 18.5427 13.3854 18.5854 13.2467C18.6281 13.108 18.7241 12.9974 18.9147 12.7747L19.0881 12.572C19.7587 11.788 20.0947 11.396 19.9774 11.0187C19.8601 10.6427 19.3681 10.532 18.3841 10.3094L18.1307 10.2507C17.8507 10.188 17.7107 10.1574 17.5974 10.0707C17.4854 9.98535 17.4134 9.85735 17.2694 9.59869L17.1387 9.36402C16.6321 8.45335 16.3787 8.00002 16.0001 8.00002Z" fill="black"/>
<path d="M9.45739 21.2546L8.95205 23.0973C8.11472 26.1533 7.69605 27.6813 8.25472 28.5173C8.45072 28.8106 8.71339 29.0453 9.01872 29.2013C9.88805 29.644 11.2321 28.944 13.9187 27.544C14.8121 27.0773 15.2601 26.8453 15.7347 26.7946C15.9112 26.777 16.0889 26.777 16.2654 26.7946C16.7401 26.8453 17.1867 27.0786 18.0814 27.544C20.7681 28.944 22.1121 29.644 22.9814 29.2013C23.2867 29.0453 23.5494 28.8106 23.7454 28.5173C24.3054 27.6813 23.8854 26.1533 23.0481 23.0973L22.5427 21.2546C20.6308 22.6105 18.3439 23.337 16.0001 23.3333C13.6562 23.337 11.3693 22.6105 9.45739 21.2546Z" fill="black"/>
</svg>
