<svg width="32" height="32" viewBox="0 0 32 32" fill="none" xmlns="http://www.w3.org/2000/svg">
<path fill-rule="evenodd" clip-rule="evenodd" d="M5.56267 4.22941C4 5.79075 4 8.30541 4 13.3334V18.6667C4 23.6947 4 26.2094 5.56267 27.7707C7.12533 29.3321 9.63867 29.3334 14.6667 29.3334H17.3333C22.3613 29.3334 24.876 29.3334 26.4373 27.7707C27.9987 26.2081 28 23.6947 28 18.6667V13.3334C28 8.30541 28 5.79075 26.4373 4.22941C24.8747 2.66808 22.3613 2.66675 17.3333 2.66675H14.6667C9.63867 2.66675 7.124 2.66675 5.56267 4.22941ZM9.66667 10.6667C9.66667 10.4015 9.77202 10.1472 9.95956 9.95964C10.1471 9.7721 10.4015 9.66675 10.6667 9.66675H21.3333C21.5986 9.66675 21.8529 9.7721 22.0404 9.95964C22.228 10.1472 22.3333 10.4015 22.3333 10.6667C22.3333 10.932 22.228 11.1863 22.0404 11.3739C21.8529 11.5614 21.5986 11.6667 21.3333 11.6667H10.6667C10.4015 11.6667 10.1471 11.5614 9.95956 11.3739C9.77202 11.1863 9.66667 10.932 9.66667 10.6667ZM9.66667 16.0001C9.66667 15.7349 9.77202 15.4805 9.95956 15.293C10.1471 15.1054 10.4015 15.0001 10.6667 15.0001H21.3333C21.5986 15.0001 21.8529 15.1054 22.0404 15.293C22.228 15.4805 22.3333 15.7349 22.3333 16.0001C22.3333 16.2653 22.228 16.5197 22.0404 16.7072C21.8529 16.8947 21.5986 17.0001 21.3333 17.0001H10.6667C10.4015 17.0001 10.1471 16.8947 9.95956 16.7072C9.77202 16.5197 9.66667 16.2653 9.66667 16.0001ZM10.6667 20.3334C10.4015 20.3334 10.1471 20.4388 9.95956 20.6263C9.77202 20.8138 9.66667 21.0682 9.66667 21.3334C9.66667 21.5986 9.77202 21.853 9.95956 22.0405C10.1471 22.2281 10.4015 22.3334 10.6667 22.3334H17.3333C17.5985 22.3334 17.8529 22.2281 18.0404 22.0405C18.228 21.853 18.3333 21.5986 18.3333 21.3334C18.3333 21.0682 18.228 20.8138 18.0404 20.6263C17.8529 20.4388 17.5985 20.3334 17.3333 20.3334H10.6667Z" fill="#4B6BFB"/>
</svg>
