<svg width="32" height="32" viewBox="0 0 32 32" fill="none" xmlns="http://www.w3.org/2000/svg">
<path d="M5.12674 5.12673C4.40592 5.84761 4.00098 6.82529 4.00098 7.84473C4.00098 8.86416 4.40592 9.84185 5.12674 10.5627L7.24274 12.6801L7.29341 12.6267L12.6267 7.29339L12.6801 7.24273L10.5627 5.12673C9.84186 4.40591 8.86417 4.00096 7.84474 4.00096C6.82531 4.00096 5.84762 4.40591 5.12674 5.12673ZM14.0907 8.65339L14.0401 8.70673L8.70674 14.0401L8.65341 14.0907L21.4374 26.8747C22.1626 27.5756 23.134 27.9635 24.1425 27.9549C25.151 27.9463 26.1157 27.5419 26.8288 26.8288C27.5419 26.1157 27.9464 25.151 27.9549 24.1425C27.9635 23.134 27.5756 22.1626 26.8747 21.4374L14.0907 8.65339ZM21.4667 3.07606C21.5138 2.95525 21.5963 2.85148 21.7034 2.77832C21.8104 2.70516 21.9371 2.66602 22.0667 2.66602C22.1964 2.66602 22.3231 2.70516 22.4301 2.77832C22.5372 2.85148 22.6196 2.95525 22.6667 3.07606L23.2401 4.53606C23.2719 4.61874 23.3206 4.69391 23.3831 4.7568C23.4455 4.81968 23.5203 4.86892 23.6027 4.90139L25.0574 5.47739C25.1779 5.52538 25.2812 5.6084 25.3539 5.71572C25.4267 5.82304 25.4656 5.94972 25.4656 6.07939C25.4656 6.20906 25.4267 6.33575 25.3539 6.44307C25.2812 6.55039 25.1779 6.63341 25.0574 6.68139L23.6041 7.25739C23.5223 7.29091 23.448 7.34035 23.3855 7.40284C23.323 7.46533 23.2736 7.53962 23.2401 7.62139L22.6667 9.08006C22.6196 9.20086 22.5372 9.30464 22.4301 9.3778C22.3231 9.45096 22.1964 9.4901 22.0667 9.4901C21.9371 9.4901 21.8104 9.45096 21.7034 9.3778C21.5963 9.30464 21.5138 9.20086 21.4667 9.08006L20.8934 7.62006C20.8599 7.53829 20.8104 7.464 20.748 7.40151C20.6855 7.33902 20.6112 7.28958 20.5294 7.25606L19.0761 6.68006C18.9556 6.63208 18.8523 6.54906 18.7795 6.44173C18.7068 6.33441 18.6679 6.20773 18.6679 6.07806C18.6679 5.94839 18.7068 5.8217 18.7795 5.71438C18.8523 5.60706 18.9556 5.52404 19.0761 5.47606L20.5294 4.90006C20.6113 4.86639 20.6857 4.81674 20.7482 4.75401C20.8107 4.69129 20.86 4.61674 20.8934 4.53473L21.4667 3.07606ZM26.6227 12.1734C26.6698 12.0526 26.7523 11.9488 26.8594 11.8757C26.9664 11.8025 27.0931 11.7633 27.2227 11.7633C27.3524 11.7633 27.4791 11.8025 27.5861 11.8757C27.6932 11.9488 27.7756 12.0526 27.8227 12.1734L28.0307 12.7054C28.0974 12.8721 28.2281 13.0041 28.3947 13.0694L28.9254 13.2801C29.0455 13.3283 29.1483 13.4113 29.2208 13.5185C29.2932 13.6256 29.3319 13.752 29.3319 13.8814C29.3319 14.0108 29.2932 14.1372 29.2208 14.2443C29.1483 14.3515 29.0455 14.4345 28.9254 14.4827L28.3947 14.6934C28.313 14.7269 28.2387 14.7764 28.1762 14.8388C28.1137 14.9013 28.0643 14.9756 28.0307 15.0574L27.8227 15.5907C27.7756 15.7115 27.6932 15.8153 27.5861 15.8885C27.4791 15.9616 27.3524 16.0008 27.2227 16.0008C27.0931 16.0008 26.9664 15.9616 26.8594 15.8885C26.7523 15.8153 26.6698 15.7115 26.6227 15.5907L26.4134 15.0574C26.38 14.9757 26.3308 14.9015 26.2686 14.839C26.2063 14.7766 26.1323 14.7271 26.0507 14.6934L25.5201 14.4827C25.4 14.4345 25.2972 14.3515 25.2247 14.2443C25.1523 14.1372 25.1135 14.0108 25.1135 13.8814C25.1135 13.752 25.1523 13.6256 25.2247 13.5185C25.2972 13.4113 25.4 13.3283 25.5201 13.2801L26.0507 13.0694C26.1323 13.0357 26.2063 12.9862 26.2686 12.9237C26.3308 12.8613 26.38 12.787 26.4134 12.7054L26.6227 12.1734ZM6.84407 20.4094C6.89118 20.2886 6.97365 20.1848 7.08071 20.1117C7.18776 20.0385 7.31441 19.9993 7.44407 19.9993C7.57374 19.9993 7.70038 20.0385 7.80744 20.1117C7.91449 20.1848 7.99697 20.2886 8.04407 20.4094L8.25341 20.9427C8.28543 21.0252 8.33419 21.1001 8.39661 21.1627C8.45903 21.2254 8.53375 21.2744 8.61607 21.3067L9.14674 21.5161C9.2672 21.564 9.3705 21.6471 9.44327 21.7544C9.51605 21.8617 9.55495 21.9884 9.55495 22.1181C9.55495 22.2477 9.51605 22.3744 9.44327 22.4817C9.3705 22.5891 9.2672 22.6721 9.14674 22.7201L8.61607 22.9307C8.53375 22.963 8.45903 23.0121 8.39661 23.0747C8.33419 23.1374 8.28543 23.2123 8.25341 23.2947L8.04407 23.8281C7.99697 23.9489 7.91449 24.0526 7.80744 24.1258C7.70038 24.199 7.57374 24.2381 7.44407 24.2381C7.31441 24.2381 7.18776 24.199 7.08071 24.1258C6.97365 24.0526 6.89118 23.9489 6.84407 23.8281L6.63474 23.2947C6.60272 23.2123 6.55396 23.1374 6.49154 23.0747C6.42912 23.0121 6.35439 22.963 6.27207 22.9307L5.74141 22.7201C5.62094 22.6721 5.51765 22.5891 5.44487 22.4817C5.3721 22.3744 5.3332 22.2477 5.3332 22.1181C5.3332 21.9884 5.3721 21.8617 5.44487 21.7544C5.51765 21.6471 5.62094 21.564 5.74141 21.5161L6.27207 21.3067C6.35452 21.2743 6.42933 21.225 6.49176 21.1621C6.55419 21.0992 6.60287 21.0241 6.63474 20.9414L6.84407 20.4094Z" fill="black"/>
</svg>
