<svg width="32" height="32" viewBox="0 0 32 32" fill="none" xmlns="http://www.w3.org/2000/svg">
<path fill-rule="evenodd" clip-rule="evenodd" d="M4.61875 4.61869C2.66675 6.57335 2.66675 9.71469 2.66675 16C2.66675 22.2854 2.66675 25.428 4.61875 27.38C6.57341 29.3334 9.71475 29.3334 16.0001 29.3334C22.2854 29.3334 25.4281 29.3334 27.3801 27.38C29.3334 25.4294 29.3334 22.2854 29.3334 16C29.3334 9.71469 29.3334 6.57202 27.3801 4.61869C25.4294 2.66669 22.2854 2.66669 16.0001 2.66669C9.71475 2.66669 6.57208 2.66669 4.61875 4.61869ZM14.0587 10.0227C14.1493 9.92752 14.2202 9.81546 14.2674 9.6929C14.3146 9.57033 14.3372 9.43967 14.3339 9.30837C14.3306 9.17707 14.3015 9.0477 14.2483 8.92765C14.195 8.80759 14.1186 8.69921 14.0234 8.60869C13.9282 8.51816 13.8162 8.44727 13.6936 8.40005C13.5711 8.35284 13.4404 8.33022 13.3091 8.3335C13.1778 8.33679 13.0484 8.3659 12.9284 8.41917C12.8083 8.47245 12.6999 8.54886 12.6094 8.64402L9.52408 11.884L8.72408 11.044C8.63454 10.9451 8.52609 10.865 8.40513 10.8086C8.28417 10.7522 8.15315 10.7206 8.01979 10.7157C7.88642 10.7107 7.75341 10.7325 7.6286 10.7797C7.50378 10.827 7.38969 10.8987 7.29303 10.9907C7.19638 11.0828 7.11912 11.1932 7.06582 11.3156C7.01251 11.4379 6.98424 11.5697 6.98266 11.7031C6.98108 11.8366 7.00623 11.969 7.05662 12.0926C7.10701 12.2162 7.18163 12.3284 7.27608 12.4227L8.80008 14.0227C8.89348 14.1207 9.0058 14.1987 9.13025 14.2521C9.2547 14.3054 9.38869 14.3329 9.52408 14.3329C9.65947 14.3329 9.79346 14.3054 9.91791 14.2521C10.0424 14.1987 10.1547 14.1207 10.2481 14.0227L14.0587 10.0227ZM17.3334 11C17.0682 11 16.8138 11.1054 16.6263 11.2929C16.4388 11.4804 16.3334 11.7348 16.3334 12C16.3334 12.2652 16.4388 12.5196 16.6263 12.7071C16.8138 12.8947 17.0682 13 17.3334 13H24.0001C24.2653 13 24.5197 12.8947 24.7072 12.7071C24.8947 12.5196 25.0001 12.2652 25.0001 12C25.0001 11.7348 24.8947 11.4804 24.7072 11.2929C24.5197 11.1054 24.2653 11 24.0001 11H17.3334ZM14.0574 19.356C14.1519 19.2617 14.2265 19.1495 14.2769 19.0259C14.3273 18.9023 14.3524 18.7699 14.3508 18.6365C14.3493 18.503 14.321 18.3712 14.2677 18.2489C14.2144 18.1265 14.1371 18.0161 14.0405 17.9241C13.9438 17.8321 13.8297 17.7603 13.7049 17.7131C13.5801 17.6658 13.4471 17.644 13.3137 17.649C13.1803 17.654 13.0493 17.6856 12.9284 17.742C12.8074 17.7984 12.699 17.8784 12.6094 17.9774L9.52408 21.2174L8.72408 20.3774C8.63454 20.2784 8.52609 20.1984 8.40513 20.142C8.28417 20.0856 8.15315 20.054 8.01979 20.049C7.88642 20.044 7.75341 20.0658 7.6286 20.1131C7.50378 20.1603 7.38969 20.2321 7.29303 20.3241C7.19638 20.4161 7.11912 20.5265 7.06582 20.6489C7.01251 20.7712 6.98424 20.903 6.98266 21.0365C6.98108 21.1699 7.00623 21.3023 7.05662 21.4259C7.10701 21.5495 7.18163 21.6617 7.27608 21.756L8.80008 23.356C8.89348 23.454 9.0058 23.5321 9.13025 23.5854C9.2547 23.6387 9.38869 23.6662 9.52408 23.6662C9.65947 23.6662 9.79346 23.6387 9.91791 23.5854C10.0424 23.5321 10.1547 23.454 10.2481 23.356L14.0574 19.356ZM17.3334 20.3334C17.0682 20.3334 16.8138 20.4387 16.6263 20.6262C16.4388 20.8138 16.3334 21.0681 16.3334 21.3334C16.3334 21.5986 16.4388 21.8529 16.6263 22.0405C16.8138 22.228 17.0682 22.3334 17.3334 22.3334H24.0001C24.2653 22.3334 24.5197 22.228 24.7072 22.0405C24.8947 21.8529 25.0001 21.5986 25.0001 21.3334C25.0001 21.0681 24.8947 20.8138 24.7072 20.6262C24.5197 20.4387 24.2653 20.3334 24.0001 20.3334H17.3334Z" fill="black"/>
</svg>
