<svg width="32" height="32" viewBox="0 0 32 32" fill="none" xmlns="http://www.w3.org/2000/svg">
<path fill-rule="evenodd" clip-rule="evenodd" d="M4.61899 4.61875C2.66699 6.57341 2.66699 9.71475 2.66699 16.0001C2.66699 22.2854 2.66699 25.4281 4.61899 27.3801C6.57366 29.3334 9.71499 29.3334 16.0003 29.3334C22.2857 29.3334 25.4283 29.3334 27.3803 27.3801C29.3337 25.4294 29.3337 22.2854 29.3337 16.0001C29.3337 9.71475 29.3337 6.57208 27.3803 4.61875C25.4297 2.66675 22.2857 2.66675 16.0003 2.66675C9.71499 2.66675 6.57233 2.66675 4.61899 4.61875ZM20.0003 16.0001C20.7363 16.0001 21.3337 15.1041 21.3337 14.0001C21.3337 12.8961 20.7363 12.0001 20.0003 12.0001C19.2643 12.0001 18.667 12.8961 18.667 14.0001C18.667 15.1041 19.2643 16.0001 20.0003 16.0001ZM13.3337 14.0001C13.3337 15.1041 12.7363 16.0001 12.0003 16.0001C11.2643 16.0001 10.667 15.1041 10.667 14.0001C10.667 12.8961 11.2643 12.0001 12.0003 12.0001C12.7363 12.0001 13.3337 12.8961 13.3337 14.0001ZM11.1963 20.7374C11.2746 20.6318 11.373 20.5427 11.4857 20.4752C11.5985 20.4077 11.7235 20.363 11.8535 20.3439C11.9835 20.3247 12.116 20.3313 12.2435 20.3634C12.371 20.3954 12.4909 20.4523 12.5963 20.5307C13.567 21.2507 14.739 21.6667 16.0003 21.6667C17.2617 21.6667 18.4337 21.2494 19.4043 20.5307C19.5095 20.4489 19.6299 20.3889 19.7585 20.3543C19.8872 20.3197 20.0214 20.3111 20.1535 20.3291C20.2855 20.3471 20.4125 20.3913 20.5272 20.459C20.6419 20.5268 20.7419 20.6168 20.8213 20.7238C20.9008 20.8308 20.958 20.9525 20.9897 21.0819C21.0214 21.2113 21.027 21.3457 21.006 21.4773C20.985 21.6088 20.938 21.7349 20.8677 21.848C20.7973 21.9612 20.7051 22.0591 20.5963 22.1361C19.2691 23.1279 17.6572 23.6647 16.0003 23.6667C14.3435 23.6647 12.7315 23.1279 11.4043 22.1361C11.1913 21.9782 11.0497 21.7421 11.0107 21.4798C10.9717 21.2175 11.0385 20.9505 11.1963 20.7374Z" fill="#4B6BFB"/>
</svg>
