<svg width="32" height="32" viewBox="0 0 32 32" fill="none" xmlns="http://www.w3.org/2000/svg">
<path d="M12.0013 13.3333C14.9468 13.3333 17.3346 10.9455 17.3346 7.99996C17.3346 5.05444 14.9468 2.66663 12.0013 2.66663C9.05578 2.66663 6.66797 5.05444 6.66797 7.99996C6.66797 10.9455 9.05578 13.3333 12.0013 13.3333Z" fill="black"/>
<path d="M12.0013 28.0014C17.156 28.0014 21.3346 25.6136 21.3346 22.668C21.3346 19.7225 17.156 17.3347 12.0013 17.3347C6.84664 17.3347 2.66797 19.7225 2.66797 22.668C2.66797 25.6136 6.84664 28.0014 12.0013 28.0014Z" fill="black"/>
<path d="M27.9999 22.6667C27.9999 24.876 25.2853 26.6667 21.9719 26.6667C22.9479 25.6 23.6199 24.26 23.6199 22.6693C23.6199 21.076 22.9466 19.736 21.9679 18.668C25.2826 18.6667 27.9999 20.4587 27.9999 22.6667ZM23.9999 7.99998C24.0004 8.64361 23.8455 9.27783 23.5484 9.84879C23.2514 10.4198 22.8209 10.9106 22.2936 11.2797C21.7663 11.6488 21.1578 11.8851 20.5196 11.9687C19.8814 12.0524 19.2325 11.9807 18.6279 11.76C19.2786 10.6138 19.62 9.31802 19.6186 7.99998C19.6186 6.63332 19.2586 5.35065 18.6293 4.24132C19.2338 4.02083 19.8825 3.94942 20.5205 4.03317C21.1585 4.11691 21.7669 4.35334 22.294 4.72237C22.8211 5.09141 23.2514 5.58216 23.5484 6.15299C23.8454 6.72381 24.0003 7.35653 23.9999 7.99998Z" fill="black"/>
</svg>
