<svg width="32" height="32" viewBox="0 0 32 32" fill="none" xmlns="http://www.w3.org/2000/svg">
<path fill-rule="evenodd" clip-rule="evenodd" d="M4.61899 4.61875C2.66699 6.57341 2.66699 9.71475 2.66699 16.0001C2.66699 22.2854 2.66699 25.4281 4.61899 27.3801C6.57366 29.3334 9.71499 29.3334 16.0003 29.3334C22.2857 29.3334 25.4283 29.3334 27.3803 27.3801C29.3337 25.4294 29.3337 22.2854 29.3337 16.0001C29.3337 9.71475 29.3337 6.57208 27.3803 4.61875C25.4297 2.66675 22.2857 2.66675 16.0003 2.66675C9.71499 2.66675 6.57233 2.66675 4.61899 4.61875ZM18.3337 13.3334C18.3337 13.8854 18.7817 14.3334 19.3337 14.3334H20.2537L17.5697 17.0174C17.5387 17.0485 17.5019 17.0731 17.4614 17.0899C17.4209 17.1067 17.3775 17.1153 17.3337 17.1153C17.2898 17.1153 17.2464 17.1067 17.2059 17.0899C17.1654 17.0731 17.1286 17.0485 17.0977 17.0174L14.983 14.9027C14.5455 14.4655 13.9522 14.2199 13.3337 14.2199C12.7151 14.2199 12.1219 14.4655 11.6843 14.9027L8.62699 17.9601C8.52874 18.0516 8.44994 18.162 8.39528 18.2847C8.34063 18.4074 8.31124 18.5398 8.30887 18.6741C8.3065 18.8083 8.3312 18.9417 8.38149 19.0662C8.43179 19.1907 8.50665 19.3038 8.60161 19.3988C8.69657 19.4938 8.80968 19.5686 8.9342 19.6189C9.05871 19.6692 9.19208 19.6939 9.32636 19.6915C9.46063 19.6892 9.59304 19.6598 9.71571 19.6051C9.83838 19.5505 9.94878 19.4717 10.0403 19.3734L13.0977 16.3161C13.1286 16.285 13.1654 16.2604 13.2059 16.2436C13.2464 16.2268 13.2898 16.2182 13.3337 16.2182C13.3775 16.2182 13.4209 16.2268 13.4614 16.2436C13.5019 16.2604 13.5387 16.285 13.5697 16.3161L15.6843 18.4307C16.1219 18.868 16.7151 19.1136 17.3337 19.1136C17.9522 19.1136 18.5455 18.868 18.983 18.4307L21.667 15.7481V16.6667C21.667 16.932 21.7723 17.1863 21.9599 17.3739C22.1474 17.5614 22.4018 17.6667 22.667 17.6667C22.9322 17.6667 23.1866 17.5614 23.3741 17.3739C23.5616 17.1863 23.667 16.932 23.667 16.6667V13.3334C23.667 13.0682 23.5616 12.8138 23.3741 12.6263C23.1866 12.4388 22.9322 12.3334 22.667 12.3334H19.3337C19.0684 12.3334 18.8141 12.4388 18.6266 12.6263C18.439 12.8138 18.3337 13.0682 18.3337 13.3334Z" fill="#4B6BFB"/>
</svg>
