<svg width="32" height="32" viewBox="0 0 32 32" fill="none" xmlns="http://www.w3.org/2000/svg">
<path fill-rule="evenodd" clip-rule="evenodd" d="M4.31267 4.25749C2.75 5.81882 2.75 8.33349 2.75 13.3615V18.6948C2.75 23.7228 2.75 26.2375 4.31267 27.7988C5.87533 29.3602 8.38867 29.3615 13.4167 29.3615H18.75C23.778 29.3615 26.2927 29.3615 27.854 27.7988C29.4153 26.2362 29.4167 23.7228 29.4167 18.6948V13.3615C29.4167 8.33349 29.4167 5.81882 27.854 4.25749C26.2913 2.69616 23.778 2.69482 18.75 2.69482H13.4167C8.38867 2.69482 5.874 2.69482 4.31267 4.25749ZM16.7593 22.3242L16.75 22.3295V11.0722L16.7793 11.0548C17.5167 10.6282 18.7087 9.99349 19.6833 9.72149C20.4033 9.52282 21.3367 9.43082 22.1593 9.39082C23.2327 9.33749 24.0833 10.2215 24.0833 11.2975V18.5762C24.0833 19.6868 23.1767 20.5815 22.07 20.6642C21.3953 20.7148 20.6673 20.7988 20.0833 20.9415C18.9673 21.2148 17.5727 21.8962 16.7593 22.3242ZM8.08333 11.3562V18.5762C8.08333 19.6868 8.99 20.5815 10.0967 20.6642C10.7713 20.7148 11.4993 20.7988 12.0833 20.9415C13.1993 21.2148 14.594 21.8962 15.4073 22.3242L15.4167 22.3295V11.1095L15.37 11.0855C14.55 10.6562 13.182 9.99216 12.0833 9.72282C11.4913 9.57749 10.75 9.49216 10.066 9.44282C8.97 9.36149 8.08333 10.2588 8.08333 11.3562Z" fill="#4B6BFB"/>
</svg>
