<svg width="32" height="32" viewBox="0 0 32 32" fill="none" xmlns="http://www.w3.org/2000/svg">
<path d="M27.9209 10.9186C28.6942 11.6826 29.0276 12.6452 29.1836 13.7879C29.3329 14.8892 29.3329 16.2892 29.3329 18.0252V18.1652C29.3329 19.9012 29.3329 21.3012 29.1836 22.4026C29.0276 23.5452 28.6942 24.5079 27.9209 25.2719C27.1476 26.0359 26.1742 26.3652 25.0169 26.5186C23.9036 26.6666 22.4862 26.6666 20.7289 26.6666H14.1622C12.4049 26.6666 10.9889 26.6666 9.87423 26.5186C8.7169 26.3652 7.74357 26.0359 6.97023 25.2719C6.52062 24.8223 6.18466 24.2719 5.99023 23.6666C7.15157 23.8092 8.59023 23.8092 10.2502 23.8092H16.9302C18.6382 23.8092 20.1102 23.8092 21.2902 23.6532C22.5529 23.4852 23.7649 23.1066 24.7476 22.1359C25.7302 21.1652 26.1129 19.9679 26.2822 18.7199C26.4422 17.5546 26.4422 16.0999 26.4409 14.4106V14.1599C26.4409 12.5199 26.4409 11.0986 26.2942 9.94922C26.9076 10.1506 27.4516 10.4546 27.9209 10.9186ZM13.5902 12.0639C12.3476 12.0639 11.3409 13.0586 11.3409 14.2852C11.3409 15.5119 12.3476 16.5079 13.5902 16.5079C14.8316 16.5079 15.8382 15.5132 15.8382 14.2852C15.8382 13.0586 14.8316 12.0639 13.5902 12.0639Z" fill="#4B6BFB"/>
<path fill-rule="evenodd" clip-rule="evenodd" d="M3.79633 7.7825C2.66699 8.8985 2.66699 10.6932 2.66699 14.2852C2.66699 17.8772 2.66699 19.6732 3.79633 20.7892C4.92566 21.9052 6.74299 21.9052 10.3777 21.9052H16.8043C20.4377 21.9052 22.255 21.9052 23.3843 20.7892C24.5137 19.6732 24.5137 17.8772 24.5137 14.2852C24.5137 10.6932 24.5137 8.8985 23.3843 7.7825C22.255 6.6665 20.4377 6.6665 16.803 6.6665H10.3777C6.74299 6.6665 4.92433 6.6665 3.79633 7.7825ZM9.41366 14.2852C9.41366 12.0052 11.2843 10.1585 13.591 10.1585C15.8977 10.1585 17.767 12.0065 17.767 14.2852C17.767 16.5638 15.8977 18.4132 13.591 18.4132C11.2843 18.4132 9.41366 16.5652 9.41366 14.2852ZM20.659 17.7785C20.1257 17.7785 19.695 17.3518 19.695 16.8252V11.7465C19.695 11.2212 20.1257 10.7945 20.659 10.7945C21.1923 10.7945 21.623 11.2212 21.623 11.7478V16.8278C21.6205 17.0815 21.5177 17.3239 21.3371 17.502C21.1565 17.6802 20.9127 17.7796 20.659 17.7785ZM5.55899 16.8252C5.55899 17.3518 5.98966 17.7772 6.52299 17.7772C7.05633 17.7772 7.48566 17.3505 7.48566 16.8252V11.7465C7.48355 11.4928 7.3811 11.2503 7.20072 11.0719C7.02034 10.8935 6.77668 10.7938 6.52299 10.7945C5.98966 10.7945 5.55899 11.2212 5.55899 11.7478V16.8252Z" fill="#4B6BFB"/>
</svg>
