<svg width="32" height="32" viewBox="0 0 32 32" fill="none" xmlns="http://www.w3.org/2000/svg">
<path fill-rule="evenodd" clip-rule="evenodd" d="M16.0001 29.3333C9.71475 29.3333 6.57208 29.3333 4.61875 27.38C2.66675 25.4293 2.66675 22.2853 2.66675 16C2.66675 9.71463 2.66675 6.57196 4.61875 4.61863C6.57341 2.66663 9.71475 2.66663 16.0001 2.66663C22.2854 2.66663 25.4281 2.66663 27.3801 4.61863C29.3334 6.57329 29.3334 9.71463 29.3334 16C29.3334 22.2853 29.3334 25.428 27.3801 27.38C25.4294 29.3333 22.2854 29.3333 16.0001 29.3333ZM18.6081 18.7933C18.3507 19.02 18.0214 19.1506 17.3654 19.4133C14.2854 20.6453 12.7454 21.2613 11.8667 20.664C11.658 20.5221 11.4779 20.3421 11.3361 20.1333C10.7387 19.2533 11.3547 17.7146 12.5867 14.6346C12.8494 13.9773 12.9801 13.648 13.2067 13.392C13.2645 13.3253 13.3263 13.2631 13.3921 13.2053C13.6494 12.98 13.9787 12.8493 14.6347 12.5866C17.7147 11.3546 19.2547 10.7386 20.1334 11.336C20.3422 11.4778 20.5223 11.6578 20.6641 11.8666C21.2614 12.7466 20.6454 14.2853 19.4134 17.3653C19.1507 18.0226 19.0201 18.352 18.7934 18.608C18.7356 18.6746 18.6739 18.7355 18.6081 18.7933Z" fill="black"/>
</svg>
