<svg width="32" height="32" viewBox="0 0 32 32" fill="none" xmlns="http://www.w3.org/2000/svg">
<path d="M29.3333 6.66663C29.3333 7.72749 28.9118 8.74491 28.1617 9.49505C27.4115 10.2452 26.3941 10.6666 25.3333 10.6666C24.2724 10.6666 23.255 10.2452 22.5048 9.49505C21.7547 8.74491 21.3333 7.72749 21.3333 6.66663C21.3333 5.60576 21.7547 4.58834 22.5048 3.8382C23.255 3.08805 24.2724 2.66663 25.3333 2.66663C26.3941 2.66663 27.4115 3.08805 28.1617 3.8382C28.9118 4.58834 29.3333 5.60576 29.3333 6.66663Z" fill="black"/>
<path fill-rule="evenodd" clip-rule="evenodd" d="M16.0001 2.66663C17.8654 2.66663 19.4534 2.66663 20.8161 2.71729C19.8131 3.8628 19.2832 5.34677 19.3336 6.86847C19.384 8.39017 20.011 9.8358 21.0876 10.9124C22.1642 11.989 23.6099 12.616 25.1316 12.6665C26.6533 12.7169 28.1372 12.1869 29.2827 11.184C29.3334 12.5466 29.3334 14.1346 29.3334 16C29.3334 22.2853 29.3334 25.428 27.3801 27.38C25.4294 29.3333 22.2854 29.3333 16.0001 29.3333C9.71475 29.3333 6.57208 29.3333 4.61875 27.38C2.66675 25.4293 2.66675 22.2853 2.66675 16C2.66675 9.71463 2.66675 6.57196 4.61875 4.61863C6.57341 2.66663 9.71475 2.66663 16.0001 2.66663ZM19.3334 14.3333C19.0682 14.3333 18.8138 14.2279 18.6263 14.0404C18.4388 13.8529 18.3334 13.5985 18.3334 13.3333C18.3334 13.0681 18.4388 12.8137 18.6263 12.6262C18.8138 12.4386 19.0682 12.3333 19.3334 12.3333H22.6667C22.932 12.3333 23.1863 12.4386 23.3739 12.6262C23.5614 12.8137 23.6667 13.0681 23.6667 13.3333V16.6666C23.6667 16.9318 23.5614 17.1862 23.3739 17.3737C23.1863 17.5613 22.932 17.6666 22.6667 17.6666C22.4015 17.6666 22.1472 17.5613 21.9596 17.3737C21.7721 17.1862 21.6667 16.9318 21.6667 16.6666V15.7466L18.9827 18.4306C18.5452 18.8679 17.952 19.1135 17.3334 19.1135C16.7149 19.1135 16.1216 18.8679 15.6841 18.4306L13.5694 16.316C13.5385 16.2849 13.5017 16.2603 13.4612 16.2435C13.4207 16.2267 13.3773 16.218 13.3334 16.218C13.2896 16.218 13.2462 16.2267 13.2057 16.2435C13.1652 16.2603 13.1284 16.2849 13.0974 16.316L10.0401 19.3733C9.85051 19.5499 9.59979 19.6461 9.34072 19.6415C9.08165 19.637 8.83447 19.532 8.65125 19.3488C8.46803 19.1656 8.36309 18.9184 8.35851 18.6593C8.35394 18.4003 8.45011 18.1495 8.62675 17.96L11.6841 14.9026C12.1216 14.4654 12.7149 14.2198 13.3334 14.2198C13.952 14.2198 14.5452 14.4654 14.9827 14.9026L17.0974 17.0173C17.1284 17.0483 17.1652 17.073 17.2057 17.0898C17.2462 17.1066 17.2896 17.1152 17.3334 17.1152C17.3773 17.1152 17.4207 17.1066 17.4612 17.0898C17.5017 17.073 17.5385 17.0483 17.5694 17.0173L20.2521 14.3333H19.3334Z" fill="black"/>
</svg>
