<svg width="68" height="68" viewBox="0 0 68 68" fill="none" xmlns="http://www.w3.org/2000/svg">
<g clip-path="url(#clip0_169_5030)">
<g filter="url(#filter0_d_169_5030)">
<path fill-rule="evenodd" clip-rule="evenodd" d="M24.2022 46.5464C23.2232 45.8633 21.8006 44.2861 19.5941 42.5209C18.3443 41.523 15.4805 39.8032 14.4716 38.7908C13.59 37.8928 13.4994 37.3951 13.3532 36.4685C13.0924 34.8205 14.2921 33.0997 16.032 32.7385C17.3457 32.4635 18.6956 32.9868 19.9223 33.4962C20.6623 33.8023 21.6817 34.5278 22.2841 34.9292C22.8382 35.2961 22.9999 35.4686 23.6092 35.9174C24.4148 36.5114 24.7107 36.8377 24.2298 36.057C23.6669 34.8667 22.7186 32.8302 21.7193 31.0794C20.96 29.7523 20.814 29.5526 20.1729 28.552C19.4925 27.4866 19.0759 26.7217 18.3932 25.5798C17.9143 24.771 16.9865 23.1025 16.5725 22.1301C16.0042 20.8012 15.2318 18.5857 15.7733 17.2877C16.1978 16.2713 17.6724 15.544 18.7882 15.7411C20.2493 15.9984 21.5469 17.6423 22.1063 18.2855C23.1118 19.4423 23.9586 20.8772 24.9099 22.8109C26.1203 25.2724 27.9829 28.6318 28.2431 29.3795C28.0132 28.4351 27.1787 26.5558 27.0588 25.6184C26.9499 24.7684 27.3214 23.6254 28.0728 23.1127C28.7091 22.68 29.5081 22.3454 30.2806 22.2723C31.1 22.1928 32.0862 22.5019 32.5538 22.9372C33.9319 24.2255 34.9475 27.4196 34.9312 27.2375C34.8481 26.2279 34.1433 24.099 34.3886 23.0447C34.5495 22.3502 35.2615 21.547 35.7018 21.3159C36.3836 20.9599 37.2581 20.643 38.0644 20.5566C38.7147 20.4886 39.7745 20.973 40.1094 21.2596C40.9145 21.9557 41.9812 24.3023 42.3391 25.1296C42.4863 25.472 42.214 24.0892 42.4828 23.058C42.9801 21.1432 46.4141 19.7301 47.6472 23.2061C48.2207 24.8281 48.1849 24.7567 48.5295 25.8609C48.9343 27.1582 49.1484 27.9479 49.3724 28.9078C49.6095 29.9354 50.1061 32.2698 50.1419 33.4648C50.1663 34.2862 49.996 36.2036 49.6235 37.4379C49.6235 37.4379 47.963 41.3982 48.1164 42.9007C48.2666 44.4015 48.3655 44.3817 48.6214 45.4005C48.8766 46.417 49.6408 47.6215 49.6408 47.6215C49.6408 47.6215 47.7514 48.4975 46.6357 48.6556C45.6256 48.7973 43.827 47.2161 43.3335 46.7147C42.6539 46.0235 41.8015 46.463 41.6395 47.1799C41.3866 48.3136 40.7352 50.4087 39.9284 50.7788C38.3527 51.5019 34.9053 52.4317 32.2305 53.236C32.2305 53.236 31.8934 50.5572 30.6093 50.0024C29.6569 49.5862 27.9557 48.6714 26.968 48.2195L24.2022 46.5464Z" fill="white"/>
<path fill-rule="evenodd" clip-rule="evenodd" d="M24.2022 46.5464C23.2232 45.8633 21.8006 44.2861 19.5941 42.5209C18.3443 41.523 15.4805 39.8032 14.4716 38.7908C13.59 37.8928 13.4994 37.3951 13.3532 36.4685C13.0924 34.8205 14.2921 33.0997 16.032 32.7385C17.3457 32.4635 18.6956 32.9868 19.9223 33.4962C20.6623 33.8023 21.6817 34.5278 22.2841 34.9292C22.8382 35.2961 22.9999 35.4686 23.6092 35.9174C24.4148 36.5114 24.7107 36.8377 24.2298 36.057C23.6669 34.8667 22.7186 32.8302 21.7193 31.0794C20.96 29.7523 20.814 29.5526 20.1729 28.552C19.4925 27.4866 19.0759 26.7217 18.3932 25.5798C17.9143 24.771 16.9865 23.1025 16.5725 22.1301C16.0042 20.8012 15.2318 18.5857 15.7733 17.2877C16.1978 16.2713 17.6724 15.544 18.7882 15.7411C20.2493 15.9984 21.5469 17.6423 22.1063 18.2855C23.1118 19.4423 23.9586 20.8772 24.9099 22.8109C26.1203 25.2724 27.9829 28.6318 28.2431 29.3795C28.0132 28.4351 27.1787 26.5558 27.0588 25.6184C26.9499 24.7684 27.3214 23.6254 28.0728 23.1127C28.7091 22.68 29.5081 22.3454 30.2806 22.2723C31.1 22.1928 32.0862 22.5019 32.5538 22.9372C33.9319 24.2255 34.9475 27.4196 34.9312 27.2375C34.8481 26.2279 34.1433 24.099 34.3886 23.0447C34.5495 22.3502 35.2615 21.547 35.7018 21.3159C36.3836 20.9599 37.2581 20.643 38.0644 20.5566C38.7147 20.4886 39.7745 20.973 40.1094 21.2596C40.9145 21.9557 41.9812 24.3023 42.3391 25.1296C42.4863 25.472 42.214 24.0892 42.4828 23.058C42.9801 21.1432 46.4141 19.7301 47.6472 23.2061C48.2207 24.8281 48.1849 24.7567 48.5295 25.8609C48.9343 27.1582 49.1484 27.9479 49.3724 28.9078C49.6095 29.9354 50.1061 32.2698 50.1419 33.4648C50.1663 34.2862 49.996 36.2036 49.6235 37.4379C49.6235 37.4379 47.963 41.3982 48.1164 42.9007C48.2666 44.4015 48.3655 44.3817 48.6214 45.4005C48.8766 46.417 49.6408 47.6215 49.6408 47.6215C49.6408 47.6215 47.7514 48.4975 46.6357 48.6556C45.6256 48.7973 43.827 47.2161 43.3335 46.7147C42.6539 46.0235 41.8015 46.463 41.6395 47.1799C41.3866 48.3136 40.7352 50.4087 39.9284 50.7788C38.3527 51.5019 34.9053 52.4317 32.2305 53.236C32.2305 53.236 31.8934 50.5572 30.6093 50.0024C29.6569 49.5862 27.9557 48.6714 26.968 48.2195L24.2022 46.5464Z" stroke="black" stroke-width="1.5" stroke-linecap="round" stroke-linejoin="round"/>
</g>
<path fill-rule="evenodd" clip-rule="evenodd" d="M32.4522 36.1592C32.2459 35.498 31.5164 35.1373 30.8229 35.3538C30.1293 35.5702 29.7344 36.2816 29.9408 36.9429L32.1825 44.1269C32.3888 44.7882 33.1183 45.1488 33.8119 44.9324C34.5054 44.716 34.9003 44.0045 34.694 43.3432L32.4522 36.1592ZM35.8458 33.7864C36.5393 33.5699 37.2688 33.9306 37.4752 34.5918L39.7169 41.7758C39.9232 42.4371 39.5283 43.1486 38.8348 43.365C38.1412 43.5814 37.4118 43.2208 37.2054 42.5595L34.9637 35.3755C34.7573 34.7143 35.1523 34.0028 35.8458 33.7864ZM40.8687 32.219C41.5623 32.0026 42.2917 32.3632 42.4981 33.0245L44.7398 40.2084C44.9462 40.8697 44.5513 41.5812 43.8577 41.7976C43.1642 42.014 42.4347 41.6534 42.2284 40.9921L39.9866 33.8081C39.7803 33.1469 40.1752 32.4354 40.8687 32.219Z" fill="black"/>
</g>
<defs>
<filter id="filter0_d_169_5030" x="8.56738" y="12.9585" width="46.3267" height="47.0273" filterUnits="userSpaceOnUse" color-interpolation-filters="sRGB">
<feFlood flood-opacity="0" result="BackgroundImageFix"/>
<feColorMatrix in="SourceAlpha" type="matrix" values="0 0 0 0 0 0 0 0 0 0 0 0 0 0 0 0 0 0 127 0" result="hardAlpha"/>
<feOffset dy="2"/>
<feGaussianBlur stdDeviation="2"/>
<feColorMatrix type="matrix" values="0 0 0 0 0 0 0 0 0 0 0 0 0 0 0 0 0 0 0.24 0"/>
<feBlend mode="normal" in2="BackgroundImageFix" result="effect1_dropShadow_169_5030"/>
<feBlend mode="normal" in="SourceGraphic" in2="effect1_dropShadow_169_5030" result="shape"/>
</filter>
<clipPath id="clip0_169_5030">
<rect width="53.9335" height="53.9335" fill="white" transform="translate(0 16.0659) rotate(-17.3304)"/>
</clipPath>
</defs>
</svg>
