<svg width="100" height="100" viewBox="0 0 100 100" fill="none" xmlns="http://www.w3.org/2000/svg">
<g clip-path="url(#clip0_4108_6524)">
<path d="M50 18C32.3408 18 18 32.3408 18 50C18 67.6592 32.3408 82 50 82C67.6592 82 82 67.6592 82 50C82 32.3408 67.6592 18 50 18ZM50 74.1776C36.608 74.1776 25.704 63.392 25.704 50C25.7146 43.5595 28.2777 37.3859 32.8318 32.8318C37.3859 28.2777 43.5595 25.7146 50 25.704C56.4405 25.7146 62.6141 28.2777 67.1682 32.8318C71.7223 37.3859 74.2854 43.5595 74.296 50C74.1776 63.392 63.392 74.1776 50 74.1776Z" fill="#F2F5F9"/>
<path d="M46.0901 54.6224C48.3413 56.6368 51.6597 56.6368 53.7941 54.6224V45.3776C51.5429 43.3632 48.2229 43.3632 46.0901 45.3776V54.6224ZM50.0021 33.5264C45.6165 33.5264 41.4693 35.304 38.3877 38.3856L43.8389 43.8368C44.6442 43.0202 45.6037 42.3718 46.6618 41.9292C47.7198 41.4866 48.8552 41.2587 50.0021 41.2587C51.149 41.2587 52.2844 41.4866 53.3424 41.9292C54.4005 42.3718 55.36 43.0202 56.1653 43.8368L61.6165 38.3856C58.5349 35.304 54.3877 33.5264 50.0021 33.5264Z" fill="#F9C846"/>
<path d="M56.1634 56.1631C55.3581 56.9797 54.3985 57.6281 53.3405 58.0707C52.2825 58.5133 51.147 58.7412 50.0002 58.7412C48.8533 58.7412 47.7179 58.5133 46.6598 58.0707C45.6018 57.6281 44.6423 56.9797 43.837 56.1631L38.3858 61.6143C44.7858 68.0143 55.2162 68.0143 61.6162 61.6143L56.165 56.1631H56.1634ZM49.9938 81.9999C50.2306 78.2079 47.9794 74.7695 44.3042 73.5855C34.8226 71.2143 27.7122 63.5119 26.1714 53.9119H42.2898C40.9858 51.4223 40.9858 48.5791 42.2898 46.2079H26.1714C28.3058 32.9327 40.6306 24.0447 53.7874 26.0591C56.8936 26.5346 59.8745 27.6223 62.557 29.2591C65.8754 31.2735 70.261 30.4447 72.6306 27.3631C60.1858 14.9183 39.9202 14.9183 27.357 27.3631C14.7938 39.8079 14.7938 60.0735 27.357 72.6367C33.4018 78.5631 41.461 81.9999 49.9938 81.9999Z" fill="#F9C846"/>
</g>
<defs>
<clipPath id="clip0_4108_6524">
<rect width="64" height="64" fill="white" transform="translate(18 18)"/>
</clipPath>
</defs>
</svg>
