<svg width="20" height="20" viewBox="0 0 20 20" fill="none" xmlns="http://www.w3.org/2000/svg">
<rect width="20" height="20" rx="10" fill="white"/>
<rect x="0.5" y="0.5" width="19" height="19" rx="9.5" stroke="black" stroke-opacity="0.1"/>
<g clip-path="url(#clip0_4064_5381)">
<path d="M10 2C5.5852 2 2 5.5852 2 10C2 14.4148 5.5852 18 10 18C14.4148 18 18 14.4148 18 10C18 5.5852 14.4148 2 10 2ZM10 16.0444C6.652 16.0444 3.926 13.348 3.926 10C3.92864 8.38989 4.56943 6.84648 5.70795 5.70795C6.84648 4.56943 8.38989 3.92864 10 3.926C11.6101 3.92864 13.1535 4.56943 14.292 5.70795C15.4306 6.84648 16.0714 8.38989 16.074 10C16.0444 13.348 13.348 16.0444 10 16.0444Z" fill="#F2F5F9"/>
<path d="M9.02228 11.1556C9.58508 11.6592 10.4147 11.6592 10.9483 11.1556V8.84439C10.3855 8.34079 9.55548 8.34079 9.02228 8.84439V11.1556ZM10.0003 5.88159C8.90388 5.88159 7.86708 6.32599 7.09668 7.09639L8.45948 8.45919C8.6608 8.25504 8.90069 8.09294 9.1652 7.9823C9.4297 7.87165 9.71356 7.81468 10.0003 7.81468C10.287 7.81468 10.5709 7.87165 10.8354 7.9823C11.0999 8.09294 11.3398 8.25504 11.5411 8.45919L12.9039 7.09639C12.1335 6.32599 11.0967 5.88159 10.0003 5.88159Z" fill="#F9C846"/>
<path d="M11.5406 11.5407C11.3393 11.7449 11.0994 11.907 10.8349 12.0176C10.5704 12.1283 10.2865 12.1852 9.9998 12.1852C9.71308 12.1852 9.42922 12.1283 9.16471 12.0176C8.90021 11.907 8.66032 11.7449 8.459 11.5407L7.0962 12.9035C8.6962 14.5035 11.3038 14.5035 12.9038 12.9035L11.541 11.5407H11.5406ZM9.9982 17.9999C10.0574 17.0519 9.4946 16.1923 8.5758 15.8963C6.2054 15.3035 4.4278 13.3779 4.0426 10.9779H8.0722C7.7462 10.3555 7.7462 9.64472 8.0722 9.05192H4.0426C4.5762 5.73312 7.6574 3.51112 10.9466 4.01472C11.7232 4.13358 12.4684 4.40551 13.139 4.81472C13.9686 5.31832 15.065 5.11112 15.6574 4.34072C12.5462 1.22952 7.4798 1.22952 4.339 4.34072C1.1982 7.45192 1.1982 12.5183 4.339 15.6591C5.8502 17.1407 7.865 17.9999 9.9982 17.9999Z" fill="#F9C846"/>
</g>
<defs>
<clipPath id="clip0_4064_5381">
<rect width="16" height="16" fill="white" transform="translate(2 2)"/>
</clipPath>
</defs>
</svg>
