<svg width="20" height="20" viewBox="0 0 20 20" fill="none" xmlns="http://www.w3.org/2000/svg">
<rect width="20" height="20" rx="10" fill="white"/>
<rect x="0.5" y="0.5" width="19" height="19" rx="9.5" stroke="black" stroke-opacity="0.1"/>
<path opacity="0.987" fill-rule="evenodd" clip-rule="evenodd" d="M9.20924 3.06099C9.93424 2.97999 10.3632 2.97999 11.1422 3.06099C12.5212 3.26509 13.7995 3.90248 14.7922 4.88099C14.1214 5.51513 13.4593 6.15852 12.8062 6.81099C11.5556 5.75099 10.1596 5.50633 8.61824 6.07699C7.48758 6.59699 6.70024 7.43966 6.25624 8.60499C5.53068 8.06482 4.81457 7.51207 4.10824 6.94699C4.05915 6.92116 4.00309 6.9117 3.94824 6.91999C5.07024 4.75666 6.82358 3.46999 9.20824 3.05999" fill="#F44336"/>
<path opacity="0.997" fill-rule="evenodd" clip-rule="evenodd" d="M3.94625 6.91994C4.00292 6.91127 4.05659 6.92027 4.10725 6.94694C4.81358 7.51202 5.52969 8.06477 6.25525 8.60494C6.14108 9.059 6.0691 9.52263 6.04025 9.98994C6.06492 10.4419 6.13659 10.8856 6.25525 11.3209L4.00025 13.1159C3.01825 11.0639 3.00025 8.9986 3.94625 6.91994Z" fill="#FFC107"/>
<path opacity="0.999" fill-rule="evenodd" clip-rule="evenodd" d="M14.6851 15.29C13.9829 14.6708 13.2479 14.0899 12.4831 13.55C13.2497 13.0087 13.7151 12.266 13.8791 11.322H10.1221V8.71299C12.2887 8.69499 14.4544 8.71332 16.6191 8.76799C17.0297 10.998 16.5554 13.0087 15.1961 14.8C15.0344 14.9718 14.8632 15.1354 14.6851 15.29Z" fill="#448AFF"/>
<path opacity="0.993" fill-rule="evenodd" clip-rule="evenodd" d="M6.255 11.322C7.075 13.36 8.57833 14.3114 10.765 14.176C11.3788 14.105 11.9673 13.8905 12.483 13.55C13.2483 14.0914 13.9823 14.6714 14.685 15.29C13.5716 16.2905 12.1521 16.8841 10.658 16.974C10.3185 17.0012 9.97746 17.0012 9.638 16.974C7.09267 16.674 5.21333 15.388 4 13.116L6.255 11.322Z" fill="#43A047"/>
</svg>
