<svg width="100" height="100" viewBox="0 0 100 100" fill="none" xmlns="http://www.w3.org/2000/svg">
<path d="M78.16 50.6667C78.16 48.5867 77.9733 46.5867 77.6267 44.6667H50V56.0267H65.7867C65.0933 59.6801 63.0133 62.7734 59.8933 64.8534V72.2401H69.4133C74.96 67.1201 78.16 59.6001 78.16 50.6667Z" fill="#4285F4"/>
<path d="M50.0001 79.3334C57.9201 79.3334 64.5601 76.7201 69.4135 72.2401L59.8935 64.8534C57.2801 66.6134 53.9468 67.6801 50.0001 67.6801C42.3735 67.6801 35.8935 62.5334 33.5735 55.6001H23.8135V63.1734C28.6401 72.7468 38.5335 79.3334 50.0001 79.3334Z" fill="#34A853"/>
<path d="M33.5737 55.5733C32.987 53.8133 32.6403 51.9466 32.6403 49.9999C32.6403 48.0533 32.987 46.1866 33.5737 44.4266V36.8533H23.8137C21.8137 40.7999 20.667 45.2533 20.667 49.9999C20.667 54.7466 21.8137 59.1999 23.8137 63.1466L31.4137 57.2266L33.5737 55.5733Z" fill="#FBBC05"/>
<path d="M50.0001 32.3467C54.3201 32.3467 58.1601 33.8401 61.2268 36.7201L69.6268 28.3201C64.5335 23.5734 57.9201 20.6667 50.0001 20.6667C38.5335 20.6667 28.6401 27.2534 23.8135 36.8534L33.5735 44.4267C35.8935 37.4934 42.3735 32.3467 50.0001 32.3467Z" fill="#EA4335"/>
</svg>
