<svg width="42" height="42" viewBox="0 0 42 42" fill="none" xmlns="http://www.w3.org/2000/svg">
<path d="M19.6567 2.70367C20.2082 1.59359 21.7918 1.59358 22.3433 2.70367L26.8478 11.7697C27.0662 12.2093 27.4859 12.5142 27.9715 12.5861L37.9857 14.0685C39.2119 14.2501 39.7013 15.7561 38.816 16.6237L31.5856 23.7093C31.235 24.0528 31.0747 24.5462 31.1564 25.0302L32.8411 35.0125C33.0474 36.2347 31.7662 37.1655 30.6675 36.5916L21.6945 31.9047C21.2594 31.6775 20.7406 31.6775 20.3055 31.9047L11.3325 36.5916C10.2338 37.1655 8.95263 36.2347 9.15891 35.0125L10.8436 25.0302C10.9253 24.5462 10.765 24.0528 10.4144 23.7093L3.18404 16.6237C2.29873 15.7561 2.78807 14.2501 4.01427 14.0685L14.0285 12.5861C14.5141 12.5142 14.9338 12.2093 15.1522 11.7697L19.6567 2.70367Z" fill="#34A853"/>
</svg>
