<svg width="20" height="20" viewBox="0 0 20 20" fill="none" xmlns="http://www.w3.org/2000/svg">
<g clip-path="url(#clip0_4064_5797)">
<g clip-path="url(#clip1_4064_5797)">
<path d="M3.68185 0.0078125C1.64828 0.0078125 0 1.66409 0 3.70725V16.2924C0 18.3355 1.64868 19.9918 3.68225 19.9918H16.3017C18.3353 19.9918 19.984 18.3355 19.984 16.2924V3.70725C19.984 1.66409 18.3353 0.0078125 16.3017 0.0078125H3.68185Z" fill="#14A800"/>
<path d="M14.3746 12.1471C13.1312 12.1471 12.3086 11.1875 12.0784 10.8142C12.3726 8.45569 13.2347 7.71229 14.3746 7.71229C15.5009 7.71229 16.3782 8.61277 16.3782 9.92971C16.3782 11.2467 15.5009 12.1471 14.3746 12.1471ZM14.3746 6.26465C12.3478 6.26465 11.2119 7.58639 10.8874 8.9473C10.518 8.25426 10.2463 7.327 10.032 6.46529H7.23068V9.9521C7.23068 11.2191 6.65594 12.1531 5.52844 12.1531C4.40094 12.1531 3.75506 11.2191 3.75506 9.9525L3.76705 6.46529H2.15234V9.9521C2.15234 10.9701 2.48248 11.8929 3.082 12.5516C3.7007 13.2303 4.54643 13.5888 5.52764 13.5888C7.47728 13.5888 8.83739 12.0936 8.83739 9.95329V7.61037C9.04283 8.38135 9.52484 9.86417 10.4525 11.1643L9.58599 16.098H11.2279L11.7998 12.6C11.9877 12.7555 12.1867 12.8961 12.3953 13.0216C12.9426 13.3695 13.5733 13.564 14.2215 13.5848H14.2247C14.273 13.5848 14.3222 13.5876 14.3722 13.5876C16.3821 13.5876 17.9829 12.0312 17.9829 9.93331C17.9833 7.83419 16.3841 6.26465 14.3746 6.26465Z" fill="white"/>
</g>
</g>
<defs>
<clipPath id="clip0_4064_5797">
<rect width="20" height="20" fill="white"/>
</clipPath>
<clipPath id="clip1_4064_5797">
<rect width="19.984" height="20" fill="white"/>
</clipPath>
</defs>
</svg>
