<svg width="42" height="42" viewBox="0 0 42 42" fill="none" xmlns="http://www.w3.org/2000/svg">
<path d="M19.6753 2.49425C20.2392 1.43238 21.7608 1.43238 22.3247 2.49425L27.0997 11.4847C27.3165 11.8929 27.7095 12.1784 28.1647 12.2584L38.1906 14.0215C39.3748 14.2297 39.845 15.6768 39.0094 16.5413L31.9345 23.8608C31.6133 24.1931 31.4632 24.655 31.5278 25.1127L32.9491 35.1928C33.117 36.3834 31.8861 37.2777 30.8057 36.7501L21.6582 32.2834C21.2428 32.0806 20.7572 32.0806 20.3418 32.2834L11.1943 36.7501C10.1139 37.2777 8.88297 36.3834 9.05085 35.1928L10.4722 25.1127C10.5368 24.655 10.3867 24.1931 10.0655 23.8608L2.99062 16.5413C2.155 15.6768 2.62518 14.2297 3.80936 14.0215L13.8353 12.2584C14.2905 12.1784 14.6835 11.8929 14.9003 11.4847L19.6753 2.49425Z" fill="#ECECEC"/>
<mask id="mask0_4064_1827" style="mask-type:alpha" maskUnits="userSpaceOnUse" x="0" y="0" width="25" height="42">
<rect width="24.75" height="42" fill="#D9D9D9"/>
</mask>
<g mask="url(#mask0_4064_1827)">
<path d="M19.6753 2.49425C20.2392 1.43238 21.7608 1.43238 22.3247 2.49425L27.0997 11.4847C27.3165 11.8929 27.7095 12.1784 28.1647 12.2584L38.1906 14.0215C39.3748 14.2297 39.845 15.6768 39.0094 16.5413L31.9345 23.8608C31.6133 24.1931 31.4632 24.655 31.5278 25.1127L32.9491 35.1928C33.117 36.3834 31.8861 37.2777 30.8057 36.7501L21.6582 32.2834C21.2428 32.0806 20.7572 32.0806 20.3418 32.2834L11.1943 36.7501C10.1139 37.2777 8.88297 36.3834 9.05085 35.1928L10.4722 25.1127C10.5368 24.655 10.3867 24.1931 10.0655 23.8608L2.99062 16.5413C2.155 15.6768 2.62518 14.2297 3.80936 14.0215L13.8353 12.2584C14.2905 12.1784 14.6835 11.8929 14.9003 11.4847L19.6753 2.49425Z" fill="#FCD503"/>
</g>
</svg>
