<svg width="120" height="40" viewBox="0 0 120 40" fill="none" xmlns="http://www.w3.org/2000/svg">
<path fill-rule="evenodd" clip-rule="evenodd" d="M33.543 4.77649H27.2269L19.1685 16.0596L11.11 4.77649H4.79395L11.11 13.7813L17.2498 22.8946H21.0871L27.2269 13.7813V35.154H33.543V4.77649ZM4.79395 9.55012C4.79395 18.1933 4.79395 28.8617 4.79395 28.8617V35.154H11.11H21.5643V28.8617H11.11V18.2294C11.11 18.2294 7.26052 12.9396 4.79395 9.55012Z" fill="#FEBC42"/>
<path d="M40.7341 4.77612H43.463L46.5175 11.9988L49.5858 4.77612H52.3147V15.3261H49.6129V10.3622L47.4135 15.3261H45.6351L43.4357 10.3622V15.3261H40.7341V4.77612Z" fill="#1D1E23"/>
<path d="M57.6855 4.77612H60.3736L64.6502 15.3261H61.6906L60.8352 12.9726H57.2376L56.3551 15.3261H53.3955L57.6855 4.77612ZM59.9664 10.768L59.0297 8.23868L58.0792 10.7815L59.9664 10.768Z" fill="#1D1E23"/>
<path d="M65.7388 4.77612H70.409C71.7395 4.77612 72.7668 5.11426 73.4908 5.79054C74.2059 6.47584 74.5633 7.31893 74.5633 8.31982C74.5633 9.36581 74.2059 10.2269 73.4908 10.9032C73.2736 11.1106 73.0156 11.291 72.717 11.4442L74.835 15.3261H72.269L70.409 11.9312H68.454V15.3261H65.7388V4.77612ZM70.2597 9.76706C71.3006 9.76706 71.821 9.28917 71.821 8.33336C71.821 7.92759 71.6943 7.59396 71.4408 7.33247C71.1875 7.07097 70.7938 6.94021 70.2597 6.94021H68.454V9.76706H70.2597Z" fill="#1D1E23"/>
<path d="M75.9209 4.77612H78.6362V15.3261H75.9209V4.77612Z" fill="#1D1E23"/>
<path d="M84.0161 4.77612H86.7042L90.9808 15.3261H88.0212L87.1659 12.9726H83.5682L82.6858 15.3261H79.7261L84.0161 4.77612ZM86.297 10.768L85.3602 8.23868L84.4098 10.7815L86.297 10.768Z" fill="#1D1E23"/>
<path d="M40.7341 18.0066H43.4357V25.9461H48.5133V28.5566H40.7341V18.0066Z" fill="#1D1E23"/>
<path d="M49.6038 18.0066H52.319V28.5566H49.6038V18.0066Z" fill="#1D1E23"/>
<path d="M56.7077 20.6306H53.4087V18.0066H62.7221V20.6306H59.4231V28.5566H56.7077V20.6306Z" fill="#1D1E23"/>
<path d="M65.5609 18.0066H68.249L72.5256 28.5566H69.5659L68.7106 26.2032H65.1128L64.2305 28.5566H61.2708L65.5609 18.0066ZM67.8417 23.9984L66.9049 21.4691L65.9546 24.012L67.8417 23.9984Z" fill="#1D1E23"/>
<path d="M73.614 18.0066H78.2841C79.6146 18.0066 80.6419 18.3448 81.3661 19.0211C82.081 19.7063 82.4386 20.5494 82.4386 21.5503C82.4386 22.5963 82.081 23.4573 81.3661 24.1338C81.1488 24.3411 80.8909 24.5214 80.5921 24.6747L82.71 28.5566H80.1442L78.2841 25.1617H76.3292V28.5566H73.614V18.0066ZM78.1349 22.9975C79.1757 22.9975 79.6961 22.5196 79.6961 21.5638C79.6961 21.1581 79.5694 20.8244 79.316 20.5629C79.0626 20.3014 78.6688 20.1706 78.1349 20.1706H76.3292V22.9975H78.1349Z" fill="#1D1E23"/>
<path d="M88.5816 28.7594C87.052 28.7594 85.735 28.2228 84.6309 27.1498C83.5176 26.0858 82.9609 24.7964 82.9609 23.2815C82.9609 21.7667 83.5176 20.4773 84.6309 19.4133C85.735 18.3401 87.052 17.8037 88.5816 17.8037C90.1293 17.8037 91.4552 18.3401 92.5594 19.4133C93.6546 20.4773 94.2021 21.7667 94.2021 23.2815C94.2021 24.7964 93.6546 26.0858 92.5594 27.1498C91.4552 28.2228 90.1293 28.7594 88.5816 28.7594ZM88.5816 26.1489C89.3872 26.1489 90.0705 25.8694 90.6317 25.3104C91.1837 24.7603 91.4598 24.084 91.4598 23.2815C91.4598 22.47 91.1837 21.7892 90.6317 21.2392C90.0794 20.6891 89.3961 20.4142 88.5816 20.4142C87.7851 20.4142 87.1063 20.6936 86.5452 21.2527C85.984 21.8118 85.7034 22.488 85.7034 23.2815C85.7034 24.0751 85.984 24.7513 86.5452 25.3104C87.1063 25.8694 87.7851 26.1489 88.5816 26.1489Z" fill="#1D1E23"/>
<path d="M94.1641 18.0066H97.1236L99.7846 25.0941L102.459 18.0066H105.419L101.129 28.5566H98.4406L94.1641 18.0066Z" fill="#1D1E23"/>
<path d="M108.106 18.0066H110.794L115.071 28.5566H112.111L111.256 26.2032H107.658L106.776 28.5566H103.816L108.106 18.0066ZM110.387 23.9984L109.45 21.4691L108.5 24.012L110.387 23.9984Z" fill="#1D1E23"/>
<path d="M43.3055 33.8811H43.9988C43.9766 34.137 43.9026 34.3652 43.7769 34.5658C43.6512 34.7645 43.4746 34.9212 43.2472 35.0357C43.0198 35.1503 42.7435 35.2076 42.4181 35.2076C42.1685 35.2076 41.9438 35.1646 41.7441 35.0787C41.5446 34.9911 41.3735 34.8675 41.2312 34.7081C41.0888 34.547 40.9798 34.3528 40.904 34.1254C40.83 33.8981 40.793 33.6439 40.793 33.3628V33.0379C40.793 32.7567 40.8309 32.5025 40.9067 32.2752C40.9843 32.0479 41.0953 31.8536 41.2394 31.6925C41.3837 31.5296 41.5566 31.4051 41.7581 31.3193C41.9614 31.2333 42.1898 31.1903 42.443 31.1903C42.7647 31.1903 43.0366 31.2476 43.2583 31.3622C43.4802 31.4767 43.6521 31.6352 43.7741 31.8375C43.898 32.0399 43.9738 32.2716 44.0015 32.533H43.3083C43.2897 32.3648 43.2491 32.2206 43.1862 32.1006C43.1253 31.9808 43.0346 31.8894 42.9145 31.8267C42.7943 31.7622 42.6372 31.73 42.443 31.73C42.2841 31.73 42.1453 31.7587 42.0271 31.816C41.9088 31.8733 41.8099 31.9575 41.7303 32.0684C41.6508 32.1794 41.5907 32.3164 41.5501 32.4793C41.5113 32.6405 41.4918 32.8248 41.4918 33.0325V33.3628C41.4918 33.5597 41.5094 33.7387 41.5446 33.8999C41.5814 34.0591 41.637 34.1961 41.7109 34.3108C41.7867 34.4252 41.8829 34.5139 41.9993 34.5766C42.1158 34.6393 42.2554 34.6706 42.4181 34.6706C42.6159 34.6706 42.7759 34.6402 42.8978 34.5793C43.0217 34.5184 43.1151 34.4297 43.178 34.3134C43.2427 34.1952 43.2851 34.0511 43.3055 33.8811Z" fill="#1D1E23"/>
<path d="M47.8508 33.0915V33.3064C47.8508 33.6018 47.811 33.8667 47.7316 34.1012C47.652 34.3358 47.5383 34.5354 47.3905 34.7C47.2444 34.8648 47.0687 34.9911 46.8636 35.0787C46.6583 35.1646 46.4309 35.2076 46.1813 35.2076C45.9335 35.2076 45.7072 35.1646 45.5019 35.0787C45.2985 34.9911 45.122 34.8648 44.9722 34.7C44.8225 34.5354 44.706 34.3358 44.6228 34.1012C44.5415 33.8667 44.5007 33.6018 44.5007 33.3064V33.0915C44.5007 32.7961 44.5415 32.5321 44.6228 32.2994C44.7042 32.0648 44.8188 31.8652 44.9667 31.7006C45.1165 31.534 45.2929 31.4078 45.4964 31.3219C45.7016 31.2342 45.928 31.1903 46.1758 31.1903C46.4254 31.1903 46.6528 31.2342 46.858 31.3219C47.0631 31.4078 47.2398 31.534 47.3876 31.7006C47.5355 31.8652 47.6492 32.0648 47.7287 32.2994C47.8101 32.5321 47.8508 32.7961 47.8508 33.0915ZM47.1547 33.3064V33.0861C47.1547 32.8678 47.1325 32.6754 47.0881 32.5088C47.0456 32.3406 46.9818 32.2 46.8968 32.0872C46.8135 31.9727 46.7111 31.8867 46.589 31.8294C46.467 31.7703 46.3292 31.7408 46.1758 31.7408C46.0224 31.7408 45.8855 31.7703 45.7653 31.8294C45.6452 31.8867 45.5425 31.9727 45.4576 32.0872C45.3743 32.2 45.3106 32.3406 45.2661 32.5088C45.2218 32.6754 45.1996 32.8678 45.1996 33.0861V33.3064C45.1996 33.5248 45.2218 33.7181 45.2661 33.8864C45.3106 34.0546 45.3752 34.197 45.4603 34.3134C45.5472 34.4279 45.6507 34.5148 45.7708 34.5739C45.891 34.6312 46.0279 34.6599 46.1813 34.6599C46.3367 34.6599 46.4744 34.6312 46.5945 34.5739C46.7147 34.5148 46.8164 34.4279 46.8995 34.3134C46.9828 34.197 47.0456 34.0546 47.0881 33.8864C47.1325 33.7181 47.1547 33.5248 47.1547 33.3064Z" fill="#1D1E23"/>
<path d="M50.0804 33.6958H49.0294V33.1613H50.0804C50.2634 33.1613 50.4113 33.1327 50.5241 33.0754C50.6369 33.0182 50.7192 32.9394 50.771 32.8391C50.8245 32.737 50.8513 32.6207 50.8513 32.49C50.8513 32.3666 50.8245 32.251 50.771 32.1436C50.7192 32.0345 50.6369 31.9467 50.5241 31.8804C50.4113 31.8142 50.2634 31.781 50.0804 31.781H49.2429V35.1539H48.5469V31.244H50.0804C50.3929 31.244 50.6582 31.2977 50.8763 31.4051C51.0964 31.5107 51.2636 31.6576 51.3782 31.8455C51.4929 32.0318 51.5502 32.2448 51.5502 32.4846C51.5502 32.737 51.4929 32.9537 51.3782 33.1345C51.2636 33.3154 51.0964 33.454 50.8763 33.5507C50.6582 33.6474 50.3929 33.6958 50.0804 33.6958Z" fill="#1D1E23"/>
<path d="M52.5595 31.244L53.4969 33.1103L54.4343 31.244H55.2052L53.8463 33.7145V35.1539H53.1447V33.7145L51.7859 31.244H52.5595Z" fill="#1D1E23"/>
<path d="M56.7081 34.2758L57.5124 31.244H57.9338L57.8868 32.0255L57.027 35.1539H56.589L56.7081 34.2758ZM56.1064 31.244L56.7581 34.2516L56.8162 35.1539H56.3505L55.4158 31.244H56.1064ZM58.8462 34.2436L59.4896 31.244H60.183L59.2484 35.1539H58.7825L58.8462 34.2436ZM58.0974 31.244L58.8934 34.2839L59.0099 35.1539H58.5717L57.7259 32.0255L57.6815 31.244H58.0974Z" fill="#1D1E23"/>
<path d="M60.699 31.244H62.1271C62.434 31.244 62.6957 31.2888 62.9119 31.3783C63.1282 31.4677 63.2937 31.6003 63.4083 31.7757C63.5247 31.9494 63.583 32.1642 63.583 32.4201C63.583 32.6154 63.546 32.7872 63.4722 32.9358C63.3981 33.0843 63.2937 33.2097 63.1588 33.3118C63.0238 33.4119 62.8629 33.4898 62.6762 33.5454L62.4654 33.6448H61.1815L61.176 33.1103H62.1382C62.3047 33.1103 62.4432 33.0816 62.5543 33.0245C62.6651 32.9672 62.7483 32.8892 62.8038 32.7907C62.8611 32.6906 62.8897 32.5777 62.8897 32.4524C62.8897 32.3164 62.862 32.1982 62.8065 32.0979C62.7529 31.996 62.6698 31.918 62.5569 31.8643C62.4441 31.8088 62.3009 31.781 62.1271 31.781H61.395V35.1539H60.699V31.244ZM63.0034 35.1539L62.0551 33.3976L62.7844 33.3949L63.7466 35.1189V35.1539H63.0034Z" fill="#1D1E23"/>
<path d="M65.0195 31.244V35.1539H64.3235V31.244H65.0195Z" fill="#1D1E23"/>
<path d="M67.4627 31.244V35.1539H66.7722V31.244H67.4627ZM68.73 31.244V31.781H65.5159V31.244H68.73Z" fill="#1D1E23"/>
<path d="M70.0056 31.244V35.1539H69.3096V31.244H70.0056Z" fill="#1D1E23"/>
<path d="M74.0738 31.244V35.1539H73.3778L71.5669 32.3531V35.1539H70.8708V31.244H71.5669L73.3834 34.0501V31.244H74.0738Z" fill="#1D1E23"/>
<path d="M78.0034 33.156V34.6491C77.946 34.7224 77.8564 34.803 77.7343 34.8908C77.6142 34.9767 77.4543 35.0509 77.2546 35.1136C77.0549 35.1763 76.8062 35.2076 76.5087 35.2076C76.2554 35.2076 76.0233 35.1664 75.8125 35.084C75.6019 35 75.4197 34.8773 75.2663 34.7161C75.1147 34.5551 74.9972 34.359 74.9141 34.1281C74.8308 33.8954 74.7893 33.6305 74.7893 33.3333V33.0619C74.7893 32.7666 74.8272 32.5034 74.903 32.2725C74.9806 32.0399 75.0916 31.8428 75.2358 31.6818C75.38 31.5206 75.5538 31.3988 75.7571 31.3166C75.9623 31.2324 76.1944 31.1903 76.4531 31.1903C76.7841 31.1903 77.0578 31.244 77.2741 31.3515C77.4922 31.457 77.6605 31.6039 77.7788 31.7918C77.897 31.9799 77.9719 32.1946 78.0034 32.4363H77.3211C77.299 32.3003 77.2555 32.1785 77.1908 32.0711C77.128 31.9637 77.0374 31.8796 76.919 31.8187C76.8026 31.756 76.651 31.7246 76.4642 31.7246C76.3035 31.7246 76.162 31.7542 76.0399 31.8133C75.918 31.8724 75.8163 31.9593 75.7349 32.0737C75.6554 32.1884 75.5953 32.3281 75.5547 32.4927C75.514 32.6575 75.4937 32.8454 75.4937 33.0566V33.3333C75.4937 33.5481 75.5168 33.7387 75.5629 33.9052C75.611 34.0716 75.6795 34.2122 75.7682 34.3269C75.8588 34.4414 75.9688 34.5282 76.0982 34.5873C76.2277 34.6446 76.3737 34.6733 76.5364 34.6733C76.6954 34.6733 76.8257 34.6608 76.9274 34.6357C77.029 34.6088 77.1095 34.5775 77.1686 34.5417C77.2296 34.504 77.2768 34.4682 77.3101 34.4342V33.6582H76.4698V33.156H78.0034Z" fill="#1D1E23"/>
<path d="M81.761 31.7649L80.5547 35.1539H79.8254L81.3451 31.244H81.8111L81.761 31.7649ZM82.7705 35.1539L81.5615 31.7649L81.5087 31.244H81.9773L83.5026 35.1539H82.7705ZM82.7123 33.7037V34.2382H80.5159V33.7037H82.7123Z" fill="#1D1E23"/>
<path d="M87.0109 33.156V34.6491C86.9535 34.7224 86.8637 34.803 86.7418 34.8908C86.6216 34.9767 86.4617 35.0509 86.2621 35.1136C86.0624 35.1763 85.8137 35.2076 85.516 35.2076C85.2627 35.2076 85.0308 35.1664 84.82 35.084C84.6092 35 84.427 34.8773 84.2736 34.7161C84.122 34.5551 84.0047 34.359 83.9214 34.1281C83.8383 33.8954 83.7966 33.6305 83.7966 33.3333V33.0619C83.7966 32.7666 83.8345 32.5034 83.9103 32.2725C83.9881 32.0399 84.099 31.8428 84.2432 31.6818C84.3873 31.5206 84.5611 31.3988 84.7646 31.3166C84.9697 31.2324 85.2017 31.1903 85.4606 31.1903C85.7915 31.1903 86.0651 31.244 86.2814 31.3515C86.4996 31.457 86.6678 31.6039 86.7861 31.7918C86.9045 31.9799 86.9794 32.1946 87.0109 32.4363H86.3286C86.3064 32.3003 86.263 32.1785 86.1983 32.0711C86.1354 31.9637 86.0449 31.8796 85.9265 31.8187C85.81 31.756 85.6584 31.7246 85.4717 31.7246C85.3108 31.7246 85.1694 31.7542 85.0474 31.8133C84.9253 31.8724 84.8238 31.9593 84.7424 32.0737C84.6629 32.1884 84.6028 32.3281 84.562 32.4927C84.5214 32.6575 84.5011 32.8454 84.5011 33.0566V33.3333C84.5011 33.5481 84.5241 33.7387 84.5704 33.9052C84.6185 34.0716 84.6868 34.2122 84.7757 34.3269C84.8661 34.4414 84.9763 34.5282 85.1057 34.5873C85.235 34.6446 85.3811 34.6733 85.5438 34.6733C85.7029 34.6733 85.8332 34.6608 85.9348 34.6357C86.0365 34.6088 86.1169 34.5775 86.1761 34.5417C86.2371 34.504 86.2843 34.4682 86.3175 34.4342V33.6582H85.4772V33.156H87.0109Z" fill="#1D1E23"/>
<path d="M90.4244 34.6195V35.1539H88.2809V34.6195H90.4244ZM88.4778 31.244V35.1539H87.7817V31.244H88.4778ZM90.1444 32.8767V33.403H88.2809V32.8767H90.1444ZM90.4107 31.244V31.781H88.2809V31.244H90.4107Z" fill="#1D1E23"/>
<path d="M94.1959 31.244V35.1539H93.4999L91.6889 32.3531V35.1539H90.9929V31.244H91.6889L93.5054 34.0501V31.244H94.1959Z" fill="#1D1E23"/>
<path d="M97.4102 33.8811H98.1034C98.0812 34.137 98.0074 34.3652 97.8815 34.5658C97.7558 34.7645 97.5793 34.9212 97.3519 35.0357C97.1245 35.1503 96.8481 35.2076 96.5227 35.2076C96.2731 35.2076 96.0486 35.1646 95.8489 35.0787C95.6492 34.9911 95.4782 34.8675 95.3358 34.7081C95.1934 34.547 95.0844 34.3528 95.0086 34.1254C94.9346 33.8981 94.8977 33.6439 94.8977 33.3628V33.0379C94.8977 32.7567 94.9356 32.5025 95.0114 32.2752C95.089 32.0479 95.1999 31.8536 95.3441 31.6925C95.4883 31.5296 95.6611 31.4051 95.8626 31.3193C96.0661 31.2333 96.2944 31.1903 96.5477 31.1903C96.8694 31.1903 97.1411 31.2476 97.363 31.3622C97.5849 31.4767 97.7567 31.6352 97.8788 31.8375C98.0027 32.0399 98.0785 32.2716 98.1062 32.533H97.4129C97.3945 32.3648 97.3537 32.2206 97.291 32.1006C97.2298 31.9808 97.1394 31.8894 97.0192 31.8267C96.8989 31.7622 96.7417 31.73 96.5477 31.73C96.3886 31.73 96.2501 31.7587 96.1317 31.816C96.0134 31.8733 95.9145 31.9575 95.8349 32.0684C95.7555 32.1794 95.6955 32.3164 95.6547 32.4793C95.6159 32.6405 95.5964 32.8248 95.5964 33.0325V33.3628C95.5964 33.5597 95.6141 33.7387 95.6492 33.8999C95.6862 34.0591 95.7416 34.1961 95.8156 34.3108C95.8914 34.4252 95.9874 34.5139 96.104 34.5766C96.2204 34.6393 96.36 34.6706 96.5227 34.6706C96.7206 34.6706 96.8805 34.6402 97.0024 34.5793C97.1263 34.5184 97.2197 34.4297 97.2826 34.3134C97.3473 34.1952 97.3898 34.0511 97.4102 33.8811Z" fill="#1D1E23"/>
<path d="M99.1212 31.244L100.058 33.1103L100.996 31.244H101.767L100.408 33.7145V35.1539H99.7064V33.7145L98.3474 31.244H99.1212Z" fill="#1D1E23"/>
</svg>
