<svg width="183" height="41" viewBox="0 0 183 41" fill="none" xmlns="http://www.w3.org/2000/svg">
<path d="M0 19.5213V0.0532227H4.04255V16.0639H11.2234V19.5213H0Z" fill="black"/>
<path d="M17.0213 4.41493H12.8723V0.265991H17.0213V4.41493ZM12.9787 6.27663H16.9149V19.5213H12.9787V6.27663Z" fill="black"/>
<path d="M28.0851 6.2766V9.73405H24.6808V14.5213C24.6808 16.1702 25.4255 16.4894 26.6489 16.4894C27.0745 16.4894 27.7128 16.383 27.8723 16.3298V19.5213C27.6596 19.6277 26.9681 19.8404 25.7447 19.8404C22.7659 19.8404 20.7447 18.5638 20.7447 14.8936V9.68086H18.7234V6.22341H20.7447V2.5H24.6808V6.22341H28.0851V6.2766Z" fill="black"/>
<path d="M37.9788 18.1383C37.0746 19.149 35.6916 19.8405 33.8299 19.8405C30.8512 19.8405 29.7874 17.9788 29.7874 15.8511V15.5852C29.7874 12.7128 31.7554 11.7554 34.5214 11.3298L37.5533 10.8511C37.5533 9.57451 37.1278 8.88302 35.7448 8.88302C34.3086 8.88302 33.9895 9.73409 33.9895 10.5852H30.2661V10.3724C30.2661 8.08515 31.4895 5.9043 35.9044 5.9043C40.2129 5.9043 41.5427 7.766 41.5427 10.9575V15.7447L41.8086 19.4681H38.2448L37.9788 18.1383ZM37.5533 15.6383V13.1915L35.3193 13.5639C34.0959 13.7766 33.6703 14.3617 33.6703 15.1596V15.3192C33.6703 16.0107 34.0959 16.649 35.2661 16.649C36.3831 16.649 37.1278 16.1171 37.5533 15.6383Z" fill="black"/>
<path d="M51.5956 5.9574V9.734H50.9041C49.3083 9.734 48.4041 10.3723 48.0317 10.9042V19.5212H44.0956V10.0531L43.8828 6.32974H47.3934L47.6594 7.87229C48.4573 6.75527 49.6275 6.01059 51.1701 6.01059C51.3296 5.9574 51.4892 5.9574 51.5956 5.9574Z" fill="black"/>
<path d="M65.6382 6.27661H69.7339L72.2871 16.3298L74.7871 6.27661H78.8829L74.9999 19.5213H69.468L65.6382 6.27661Z" fill="black"/>
<path d="M87.4998 18.1383C86.5956 19.149 85.2126 19.8405 83.3509 19.8405C80.3722 19.8405 79.3083 17.9788 79.3083 15.8511V15.5852C79.3083 12.7128 81.2764 11.7554 84.0424 11.3298L87.0743 10.8511C87.0743 9.57451 86.6488 8.88302 85.2658 8.88302C83.8296 8.88302 83.5105 9.73409 83.5105 10.5852H79.7871V10.3724C79.7871 8.08515 81.0637 5.9043 85.4254 5.9043C89.7339 5.9043 91.0637 7.766 91.0637 10.9575V15.7447L91.3296 19.4681H87.7658L87.4998 18.1383ZM87.1275 15.6383V13.1915L84.8935 13.5639C83.6701 13.7766 83.2445 14.3617 83.2445 15.1596V15.3192C83.2445 16.0107 83.6701 16.649 84.8403 16.649C85.9041 16.649 86.702 16.1171 87.1275 15.6383Z" fill="black"/>
<path d="M107.66 0L112.553 19.5745H108.245L107.287 15.3724H102.5L101.596 19.5745H97.2341L102.128 0H107.66ZM103.298 11.8085H106.489L104.894 4.62766L103.298 11.8085Z" fill="#FFA300"/>
<path d="M121.755 17.7128C121.011 18.5639 119.894 19.0426 118.351 19.0426C114.84 19.0426 113.404 16.5958 113.404 12.8192V12.1277C113.404 8.56387 114.787 5.9043 118.351 5.9043C120.213 5.9043 121.383 6.70217 122.128 7.766L122.394 6.22345H125.904L125.692 9.94685V19.2022C125.692 22.8724 123.723 24.7873 119.575 24.7873C115.16 24.7873 113.67 22.6596 113.67 20.0001V19.4681H117.394C117.394 20.6915 117.819 21.5958 119.468 21.5958C121.011 21.5958 121.702 21.0107 121.702 19.2022V17.7128H121.755ZM121.755 14.4149V10.6383C121.436 10.1596 120.692 9.36175 119.521 9.36175C118.085 9.36175 117.394 10.4788 117.394 12.1809V12.8724C117.394 14.7873 118.085 15.6915 119.521 15.6915C120.745 15.6383 121.489 14.8937 121.755 14.4149Z" fill="#FFA300"/>
<path d="M131.755 14.3086C131.915 16.1703 132.766 16.8086 134.255 16.8086C135.638 16.8086 136.489 16.0107 136.489 15.2128H140.213V15.3192C140.213 17.8192 138.085 19.7873 134.255 19.7873C129.84 19.7873 127.819 17.0213 127.819 13.1915V12.5C127.819 8.67026 129.894 5.9043 134.096 5.9043C138.298 5.9043 140.213 8.67026 140.213 12.5V14.2554H131.755V14.3086ZM131.755 11.4894H136.223C136.117 9.78728 135.372 8.98941 133.989 8.98941C132.606 8.98941 131.915 9.73409 131.755 11.4894Z" fill="#FFA300"/>
<path d="M150.319 19.5213V11.2234C150.319 10.2659 149.894 9.36169 148.564 9.36169C147.34 9.36169 146.543 10.1596 146.223 10.6383V19.5213H142.287V10.0532L142.074 6.32977H145.585L145.904 8.0319C146.755 6.86168 148.085 6.01062 150.16 6.01062C153.138 6.01062 154.255 8.19147 154.255 10.5851V19.5213H150.319Z" fill="#FFA300"/>
<path d="M162.287 16.4361C163.564 16.4361 164.202 15.6383 164.202 14.6276H167.926V15.1595C167.926 17.8723 166.011 19.8404 162.234 19.8404C158.085 19.8404 156.223 17.1808 156.223 13.351V12.4468C156.223 8.61697 158.032 5.9574 162.234 5.9574C166.011 5.9574 167.926 7.92548 167.926 10.851V11.4361H164.202C164.202 10.1063 163.564 9.36165 162.287 9.36165C160.745 9.36165 160.16 10.5319 160.16 12.4468V13.351C160.16 15.3191 160.745 16.4361 162.287 16.4361Z" fill="#FFA300"/>
<path d="M178.032 6.27661H182.34L177.66 18.8298L175.957 24.5213H171.277L173.404 18.8298L168.777 6.27661H173.085L175.585 14.7341L178.032 6.27661Z" fill="#FFA300"/>
<path d="M0.37207 34.8937L1.96782 34.2022C2.23377 34.6809 2.49973 35.0533 2.76569 35.266C3.03165 35.4788 3.40399 35.5852 3.82952 35.5852C4.30824 35.5852 4.68058 35.4788 4.94654 35.266C5.2125 35.0533 5.37208 34.7873 5.37208 34.415C5.37208 34.149 5.26569 33.883 5.05292 33.6703C4.84016 33.4575 4.46782 33.2979 3.98909 33.0852C3.9359 33.032 3.82952 33.032 3.66994 32.9788C2.76569 32.6596 2.12739 32.3405 1.75505 32.1277C1.38271 31.915 1.11675 31.5958 0.957176 31.2767C0.797602 30.9575 0.691219 30.5852 0.691219 30.1064C0.691219 29.3618 0.957175 28.7767 1.54228 28.2979C2.12739 27.8192 2.81888 27.6064 3.72313 27.6064C4.52101 27.6064 5.15931 27.766 5.69122 28.1384C6.22314 28.5107 6.59548 28.9894 6.86144 29.6277L5.26569 30.2128C5.05292 29.7873 4.84016 29.5213 4.5742 29.3086C4.30824 29.0958 3.98909 29.0426 3.56356 29.0426C3.19122 29.0426 2.87207 29.149 2.6593 29.3086C2.44654 29.4681 2.34016 29.7341 2.34016 30.0533C2.34016 30.532 2.87207 30.9575 3.9359 31.383C4.25505 31.4894 4.52101 31.5958 4.73377 31.7022C5.63803 32.0745 6.22314 32.4469 6.54229 32.8724C6.86144 33.2979 7.02101 33.7767 7.02101 34.415C7.02101 35.266 6.75505 35.9575 6.16995 36.4362C5.58484 36.915 4.84016 37.1809 3.88271 37.1809C3.03165 37.1809 2.28697 36.9682 1.70186 36.5958C1.11675 36.2235 0.69122 35.6384 0.37207 34.8937Z" fill="#201600"/>
<path d="M8.56372 36.9681V27.7128H14.5744V29.2021H10.2658V31.383H13.4041V32.8723H10.2658V35.3723H14.7339V36.9681H8.56372Z" fill="#201600"/>
<path d="M20.5849 27.766C21.0104 27.766 21.436 27.8192 21.8083 27.9256C22.1807 28.0319 22.553 28.1915 22.9253 28.4043C23.2977 28.6171 23.5636 28.8298 23.8828 29.149C24.2019 29.4681 24.4147 29.7341 24.6275 30.1064C24.8402 30.4788 24.9998 30.8511 25.1062 31.2234C25.2126 31.649 25.2658 32.0213 25.2658 32.5C25.2658 32.9256 25.2126 33.3511 25.1062 33.7234C24.9998 34.0958 24.8402 34.4681 24.6275 34.8405C24.4147 35.1596 24.2019 35.4788 23.8828 35.7979C23.6168 36.0639 23.2977 36.3298 22.9253 36.5426C22.553 36.7554 22.1807 36.9149 21.8083 37.0213C21.436 37.1277 21.0104 37.1809 20.5849 37.1809C20.1594 37.1809 19.7338 37.1277 19.3615 37.0213C18.9892 36.9149 18.6168 36.7554 18.2445 36.5426C17.8721 36.3298 17.6062 36.1171 17.287 35.7979C17.0211 35.532 16.7551 35.2128 16.5424 34.8405C16.3296 34.4681 16.17 34.149 16.0636 33.7234C15.9572 33.3511 15.9041 32.9256 15.9041 32.5C15.9041 32.0745 15.9572 31.649 16.0636 31.2766C16.17 30.8511 16.3296 30.4788 16.5424 30.1596C16.7551 29.7873 16.9679 29.5213 17.287 29.2022C17.6062 28.883 17.8721 28.6702 18.2445 28.4575C18.6168 28.2447 18.9892 28.0851 19.3615 27.9788C19.7338 27.8192 20.1594 27.766 20.5849 27.766ZM16.9679 32.4468C16.9679 32.9256 17.0743 33.4043 17.2338 33.883C17.3934 34.3617 17.6594 34.6809 18.0317 35.0532C18.3509 35.3724 18.7232 35.6383 19.2019 35.8511C19.6275 36.0639 20.1062 36.1171 20.5849 36.1171C21.0636 36.1171 21.5424 36.0107 21.9679 35.8511C22.3934 35.6383 22.819 35.4256 23.1381 35.0532C23.4572 34.6809 23.7232 34.3617 23.936 33.883C24.1487 33.4575 24.2019 32.9788 24.2019 32.4468C24.2019 31.9681 24.0955 31.4894 23.936 31.0639C23.7232 30.6383 23.5104 30.266 23.1381 29.8937C22.7658 29.5213 22.4466 29.3085 21.9679 29.0958C21.4892 28.883 21.0636 28.8298 20.5849 28.8298C20.1062 28.8298 19.6275 28.9362 19.2019 29.0958C18.7764 29.3085 18.4041 29.5213 18.0317 29.8937C17.7126 30.2128 17.4466 30.5851 17.2338 31.0639C17.0211 31.5426 16.9679 31.9149 16.9679 32.4468ZM20.5849 31.5958C20.6913 31.5958 20.7977 31.5958 20.9041 31.649C21.0104 31.7022 21.1168 31.7554 21.17 31.8085C21.2232 31.8617 21.3296 31.9681 21.3296 32.0745C21.3296 32.1809 21.3828 32.2873 21.3828 32.3937C21.3828 32.5 21.3828 32.6064 21.3296 32.7128C21.2764 32.8192 21.2232 32.9256 21.17 32.9788C21.1168 33.032 21.0104 33.1383 20.9041 33.1383C20.7977 33.1915 20.6913 33.1915 20.5849 33.1915C20.4785 33.1915 20.3721 33.1915 20.2658 33.1383C20.1594 33.0851 20.053 33.032 19.9998 32.9788C19.9466 32.9256 19.8402 32.8192 19.8402 32.7128C19.787 32.6064 19.787 32.5 19.787 32.3937C19.787 32.2873 19.787 32.1809 19.8402 32.0745C19.8934 31.9681 19.9466 31.8617 19.9998 31.8085C20.053 31.7554 20.1594 31.649 20.2658 31.649C20.3721 31.5958 20.4785 31.5958 20.5849 31.5958Z" fill="white"/>
<path d="M46.0105 34.2022L47.6062 34.6277C47.3935 35.4256 46.9679 36.0639 46.3828 36.4894C45.7977 36.9149 45.0531 37.1277 44.202 37.1277C42.9786 37.1277 42.0743 36.7022 41.4892 35.9043C40.9041 35.1064 40.585 33.9362 40.585 32.3405C40.585 30.7979 40.9041 29.6277 41.5424 28.7766C42.1807 27.9256 43.1382 27.5532 44.3084 27.5532C45.1594 27.5532 45.8509 27.766 46.3828 28.1915C46.9147 28.6171 47.2871 29.2022 47.4467 30L45.8509 30.3724C45.7445 29.9468 45.5318 29.5745 45.2658 29.3617C44.9999 29.149 44.6275 29.0426 44.202 29.0426C43.5637 29.0426 43.085 29.3085 42.7658 29.8937C42.4467 30.4788 42.2871 31.2766 42.2871 32.3937C42.2871 33.4575 42.4467 34.3085 42.7658 34.7873C43.085 35.266 43.5637 35.5851 44.202 35.5851C44.6275 35.5851 44.9999 35.4788 45.319 35.2128C45.6382 34.9468 45.9041 34.6277 46.0105 34.2022Z" fill="#201600"/>
<path d="M48.2976 33.617C48.2976 32.5532 48.5636 31.7021 49.0423 31.0638C49.521 30.4255 50.2657 30.1595 51.1699 30.1595C52.0742 30.1595 52.7657 30.4787 53.2976 31.0638C53.8295 31.6489 54.0423 32.5532 54.0423 33.617C54.0423 34.6808 53.7763 35.5319 53.2976 36.1702C52.8189 36.8085 52.0742 37.0744 51.2231 37.0744C50.3721 37.0744 49.6274 36.7553 49.1487 36.1702C48.67 35.5851 48.2976 34.734 48.2976 33.617ZM49.8934 33.617C49.8934 34.3085 49.9997 34.8404 50.2125 35.2127C50.4253 35.5851 50.7444 35.7447 51.1699 35.7447C51.5955 35.7447 51.9146 35.5851 52.1274 35.2127C52.3402 34.8404 52.4465 34.3085 52.4465 33.617C52.4465 32.9255 52.3402 32.3936 52.1274 32.0212C51.9146 31.6489 51.5955 31.4893 51.1699 31.4893C50.7444 31.4893 50.4253 31.6489 50.2125 32.0212C49.9997 32.3936 49.8934 32.9255 49.8934 33.617Z" fill="#201600"/>
<path d="M56.8084 36.3298V39.4149H55.2659V30.2659H56.4361L56.5957 31.0106C56.8616 30.6915 57.1808 30.4787 57.4467 30.3723C57.7127 30.2659 58.0318 30.1595 58.4042 30.1595C59.1488 30.1595 59.7871 30.4787 60.2659 31.117C60.7446 31.7553 61.0105 32.6064 61.0105 33.617C61.0105 34.6808 60.7978 35.4787 60.3191 36.117C59.8403 36.7553 59.2552 37.0744 58.4574 37.0744C58.1382 37.0744 57.8191 37.0213 57.5531 36.9149C57.2871 36.8085 57.0212 36.5957 56.8084 36.3298ZM56.8084 35.2659C57.0212 35.4787 57.234 35.5851 57.4467 35.6915C57.6595 35.7978 57.8191 35.851 58.0318 35.851C58.4574 35.851 58.8297 35.6383 59.0425 35.2659C59.2552 34.8936 59.4148 34.3617 59.4148 33.6702C59.4148 32.9787 59.3084 32.4468 59.0425 32.0744C58.7765 31.7021 58.4574 31.4893 57.9786 31.4893C57.7659 31.4893 57.6063 31.5425 57.3935 31.6489C57.1808 31.7553 57.0212 31.9149 56.8084 32.0744V35.2659Z" fill="#201600"/>
<path d="M63.7765 36.8086L61.436 30.3192H63.0318L64.5211 34.7341L65.9041 30.3192H67.4467L65.3722 36.649C64.9467 37.8724 64.5743 38.6171 64.202 38.9362C63.8297 39.2554 63.2977 39.415 62.6594 39.415C62.5531 39.415 62.4467 39.415 62.2871 39.415C62.1275 39.415 62.0743 39.3618 61.9148 39.3618V38.032C62.0211 38.032 62.1275 38.0852 62.2339 38.0852C62.3403 38.0852 62.4467 38.0852 62.5531 38.0852C62.9254 38.0852 63.1914 37.9788 63.3509 37.766C63.5105 37.5533 63.6701 37.2341 63.7765 36.8086Z" fill="#201600"/>
<path d="M69.6275 36.9681L67.6594 30.266H69.202L70.1062 33.5107C70.1594 33.6703 70.1594 33.8298 70.2126 34.0958C70.2658 34.3617 70.319 34.6277 70.319 34.9468C70.319 34.7873 70.3722 34.5745 70.3722 34.4149C70.3722 34.2554 70.4786 34.0426 70.5318 33.7766L71.436 30.266H72.8722L73.7764 33.5107C73.8296 33.6703 73.8828 33.883 73.8828 34.149C73.8828 34.4149 73.9892 34.6809 73.9892 34.9468C73.9892 34.7341 74.0424 34.5213 74.0956 34.3617C74.1488 34.2022 74.1488 33.9894 74.202 33.7766L75.1062 30.266H76.6488L74.6807 36.9681H73.2977L72.4467 34.0958C72.3403 33.7766 72.2871 33.4575 72.2339 33.2447C72.1807 33.032 72.1275 32.766 72.1275 32.5532C72.0743 32.8724 72.0211 33.1915 71.9679 33.4575C71.9147 33.7234 71.8616 33.883 71.8616 34.0426L70.9573 37.0213H69.6275V36.9681Z" fill="#201600"/>
<path d="M77.7659 36.9681V30.2659H79.2552V31.383C79.468 30.9574 79.734 30.6915 79.9999 30.4787C80.2659 30.2659 80.585 30.1595 80.9042 30.1595C80.9574 30.1595 81.0106 30.1595 81.0106 30.1595H81.0638V31.8085H81.0106C80.6382 31.8085 80.3191 31.9149 80.0531 32.0744C79.7871 32.234 79.5212 32.5 79.3616 32.8723V36.9681H77.7659Z" fill="#201600"/>
<path d="M82.1807 29.2021V27.7128H83.7764V29.2021H82.1807ZM82.1807 36.9681V30.266H83.7764V36.9681H82.1807Z" fill="#201600"/>
<path d="M87.234 34.9468C87.234 35.2659 87.2872 35.4787 87.3936 35.5851C87.4999 35.6914 87.6595 35.7446 87.9255 35.7446C88.0319 35.7446 88.1382 35.7446 88.2446 35.7446C88.351 35.7446 88.4574 35.7446 88.5638 35.6914V36.968C88.4042 37.0212 88.1914 37.0212 87.9787 37.0744C87.7659 37.1276 87.4999 37.1276 87.2872 37.1276C86.7553 37.1276 86.3297 37.0212 86.117 36.7553C85.9042 36.4893 85.7446 36.117 85.7446 35.5851V31.6489H84.8936V30.3723H85.7446V28.2446H87.3404V30.3723H88.617V31.6489H87.3404V34.9468H87.234Z" fill="#201600"/>
<path d="M89.5742 29.2021V27.7128H91.17V29.2021H89.5742ZM89.5742 36.9681V30.266H91.17V36.9681H89.5742Z" fill="#201600"/>
<path d="M92.8191 36.9681V30.2659H94.2553V31.0638C94.6808 30.7447 95.0531 30.4787 95.3723 30.3723C95.6914 30.2659 96.0106 30.1595 96.3297 30.1595C96.968 30.1595 97.4467 30.3191 97.7127 30.6915C97.9787 31.0638 98.1914 31.5957 98.1914 32.3404V36.9681H96.5957V32.6064C96.5957 32.1808 96.5425 31.8617 96.4361 31.7021C96.3297 31.5425 96.117 31.4361 95.851 31.4361C95.6382 31.4361 95.3723 31.4893 95.1595 31.5957C94.9467 31.7021 94.6808 31.9149 94.4148 32.1808V36.9681H92.8191Z" fill="#201600"/>
<path d="M100.425 36.4894C100.106 36.3298 99.8935 36.1702 99.7339 36.0107C99.5743 35.8511 99.5211 35.6915 99.5211 35.4788C99.5211 35.2128 99.6275 35 99.7871 34.7873C99.9466 34.5745 100.213 34.3617 100.532 34.2022C100.213 33.9894 99.9998 33.7766 99.8403 33.4575C99.6807 33.1383 99.6275 32.8192 99.6275 32.4468C99.6275 31.7554 99.8403 31.2234 100.319 30.7447C100.798 30.266 101.383 30.1064 102.181 30.1064C102.5 30.1064 102.766 30.1596 103.085 30.266C103.404 30.3724 103.617 30.4788 103.883 30.6915C104.042 30.4788 104.202 30.3192 104.415 30.2128C104.628 30.1064 104.84 30.0532 105.106 30.0532C105.159 30.0532 105.213 30.0532 105.266 30.0532C105.319 30.0532 105.319 30.0532 105.372 30.0532V31.2234C105.372 31.2234 105.372 31.2234 105.319 31.2234C105.159 31.2234 105.106 31.2234 105.053 31.2234C104.947 31.2234 104.84 31.2234 104.734 31.2766C104.628 31.3298 104.574 31.3298 104.468 31.383C104.574 31.5426 104.628 31.7022 104.681 31.9149C104.734 32.1277 104.734 32.3405 104.734 32.6064C104.734 33.2447 104.521 33.7766 104.042 34.149C103.564 34.5213 102.979 34.7341 102.234 34.7341C102.074 34.7341 101.968 34.7341 101.862 34.7341C101.755 34.7341 101.649 34.6809 101.542 34.6809C101.383 34.7341 101.276 34.7873 101.223 34.8937C101.17 35 101.117 35.0532 101.117 35.1596C101.117 35.4256 101.542 35.5851 102.393 35.6383C102.606 35.6383 102.766 35.6915 102.872 35.6915C103.83 35.7447 104.468 35.9043 104.787 36.1702C105.106 36.4362 105.319 36.8617 105.319 37.3937C105.319 38.0851 105.053 38.5639 104.521 38.9362C103.989 39.3085 103.191 39.4681 102.181 39.4681C101.276 39.4681 100.532 39.3085 100.053 39.0426C99.5743 38.7766 99.3083 38.3511 99.3083 37.8192C99.3083 37.5 99.4147 37.2873 99.5743 37.0745C99.7339 36.8617 99.9998 36.649 100.425 36.4894ZM101.436 36.8085C101.17 36.9149 101.01 37.0213 100.904 37.1277C100.798 37.2341 100.745 37.3405 100.745 37.5C100.745 37.7128 100.851 37.9256 101.117 38.032C101.383 38.1383 101.649 38.2447 102.074 38.2447C102.606 38.2447 103.032 38.1915 103.351 38.032C103.67 37.8724 103.83 37.6596 103.83 37.4468C103.83 37.2873 103.776 37.1277 103.617 37.0745C103.457 37.0213 103.245 36.9149 102.925 36.9149L101.436 36.8085ZM101.064 32.5C101.064 32.8192 101.17 33.0851 101.33 33.2447C101.489 33.4043 101.808 33.5107 102.128 33.5107C102.447 33.5107 102.713 33.4043 102.925 33.1915C103.138 32.9788 103.245 32.7128 103.245 32.3936C103.245 32.0745 103.138 31.8085 102.925 31.5958C102.713 31.383 102.447 31.2766 102.128 31.2766C101.808 31.2766 101.542 31.383 101.383 31.5958C101.223 31.8085 101.064 32.1277 101.064 32.5Z" fill="#201600"/>
<path d="M120.532 36.9681V27.7128H123.032L124.362 32.234C124.468 32.6596 124.574 33.0319 124.681 33.4043C124.787 33.7766 124.84 34.1489 124.893 34.5213C124.947 34.2021 125.053 33.8298 125.159 33.4574C125.266 33.0851 125.372 32.6596 125.532 32.234L126.915 27.7128H129.308V36.9681H127.819V29.2021C127.766 29.5213 127.659 29.8936 127.553 30.2128C127.447 30.5319 127.34 30.9043 127.234 31.2234L125.532 36.9681H124.255L122.606 31.2234C122.447 30.6383 122.34 30.2128 122.234 29.8936C122.127 29.5745 122.074 29.3617 122.074 29.1489V36.9149H120.532V36.9681Z" fill="#201600"/>
<path d="M134.628 36.9682L134.468 36.383C134.149 36.5958 133.83 36.7554 133.511 36.8618C133.191 36.9682 132.819 37.0213 132.447 37.0213C131.915 37.0213 131.436 36.8618 131.117 36.5426C130.798 36.2235 130.638 35.7979 130.638 35.2128C130.638 34.4681 130.957 33.883 131.542 33.4575C132.128 33.032 133.138 32.766 134.415 32.6064V32.0745C134.415 31.8086 134.308 31.649 134.149 31.4894C133.989 31.3298 133.776 31.2767 133.457 31.2767C133.138 31.2767 132.872 31.3298 132.606 31.4894C132.34 31.649 132.128 31.8086 131.968 32.0745L130.904 31.383C131.17 30.9575 131.542 30.6384 131.968 30.4256C132.394 30.2128 132.872 30.1064 133.457 30.1064C134.255 30.1064 134.84 30.266 135.266 30.6384C135.691 31.0107 135.904 31.4894 135.904 32.0745V36.0107C135.904 36.1171 135.904 36.2235 135.904 36.383C135.904 36.5426 135.957 36.7022 135.957 36.915H134.628V36.9682ZM134.468 33.7235C133.723 33.8298 133.138 33.9894 132.819 34.2022C132.5 34.415 132.287 34.7341 132.287 35.1064C132.287 35.3192 132.34 35.532 132.5 35.6384C132.659 35.7447 132.819 35.8511 133.032 35.8511C133.298 35.8511 133.511 35.7979 133.776 35.6916C134.042 35.5852 134.255 35.3724 134.521 35.1596V33.7235H134.468Z" fill="#201600"/>
<path d="M137.713 36.9681V30.2659H139.202V31.383C139.415 30.9574 139.681 30.6915 139.947 30.4787C140.213 30.2659 140.532 30.1595 140.851 30.1595C140.904 30.1595 140.957 30.1595 140.957 30.1595H141.011V31.8085H140.957C140.585 31.8085 140.266 31.9149 140 32.0744C139.734 32.234 139.468 32.5 139.308 32.8723V36.9681H137.713Z" fill="#201600"/>
<path d="M142.074 36.9681V27.7128H143.617V33.0319L145.691 30.3192H147.447L145.479 32.7128L147.606 37.0213H145.904L144.415 33.9362L143.67 34.8404V37.0213H142.074V36.9681Z" fill="#201600"/>
<path d="M153.51 35.6383C153.245 36.117 152.925 36.4893 152.447 36.7021C151.968 36.9149 151.436 37.0744 150.851 37.0744C149.947 37.0744 149.255 36.7553 148.776 36.1702C148.298 35.5851 148.032 34.734 148.032 33.617C148.032 32.5 148.298 31.6489 148.776 31.0638C149.255 30.4787 149.947 30.1595 150.851 30.1595C151.702 30.1595 152.393 30.4787 152.872 31.0638C153.351 31.6489 153.617 32.5 153.617 33.5638C153.617 33.617 153.617 33.6702 153.617 33.7234C153.617 33.7766 153.617 33.883 153.617 33.883H149.627C149.627 34.5213 149.734 35 150 35.3191C150.266 35.6383 150.585 35.7978 151.064 35.7978C151.33 35.7978 151.596 35.7447 151.808 35.5851C152.021 35.4255 152.234 35.2127 152.393 34.9468L153.51 35.6383ZM149.574 32.7659H152.021C152.021 32.3404 151.915 31.9681 151.702 31.7021C151.489 31.4361 151.17 31.3298 150.798 31.3298C150.425 31.3298 150.159 31.4361 149.947 31.7021C149.734 31.9681 149.627 32.3404 149.574 32.7659Z" fill="#201600"/>
<path d="M156.596 34.9468C156.596 35.2659 156.649 35.4787 156.755 35.5851C156.862 35.6914 157.021 35.7446 157.287 35.7446C157.394 35.7446 157.5 35.7446 157.606 35.7446C157.713 35.7446 157.819 35.7446 157.926 35.6914V36.968C157.766 37.0212 157.553 37.0212 157.34 37.0744C157.128 37.1276 156.862 37.1276 156.649 37.1276C156.117 37.1276 155.692 37.0212 155.479 36.7553C155.266 36.4893 155.106 36.117 155.106 35.5851V31.6489H154.255V30.3723H155.106V28.2446H156.702V30.3723H157.979V31.6489H156.702V34.9468H156.596Z" fill="#201600"/>
<path d="M158.936 29.2021V27.7128H160.532V29.2021H158.936ZM158.936 36.9681V30.266H160.532V36.9681H158.936Z" fill="#201600"/>
<path d="M162.181 36.9681V30.2659H163.617V31.0638C164.042 30.7447 164.415 30.4787 164.734 30.3723C165.053 30.2659 165.372 30.1595 165.691 30.1595C166.33 30.1595 166.808 30.3191 167.074 30.6915C167.34 31.0638 167.553 31.5957 167.553 32.3404V36.9681H165.957V32.6064C165.957 32.1808 165.904 31.8617 165.798 31.7021C165.691 31.5425 165.479 31.4361 165.213 31.4361C165 31.4361 164.734 31.4893 164.521 31.5957C164.308 31.7021 164.042 31.9149 163.776 32.1808V36.9681H162.181Z" fill="#201600"/>
<path d="M169.787 36.4894C169.468 36.3298 169.255 36.1702 169.096 36.0107C168.936 35.8511 168.883 35.6915 168.883 35.4788C168.883 35.2128 168.989 35 169.149 34.7873C169.308 34.5745 169.574 34.3617 169.894 34.2022C169.574 33.9894 169.362 33.7766 169.202 33.4575C169.043 33.1383 168.989 32.8192 168.989 32.4468C168.989 31.7554 169.202 31.2234 169.681 30.7447C170.16 30.266 170.745 30.1064 171.543 30.1064C171.862 30.1064 172.128 30.1596 172.447 30.266C172.766 30.3724 172.979 30.4788 173.245 30.6915C173.404 30.4788 173.564 30.3192 173.777 30.2128C173.989 30.1064 174.202 30.0532 174.468 30.0532C174.521 30.0532 174.574 30.0532 174.628 30.0532C174.681 30.0532 174.681 30.0532 174.734 30.0532V31.2234C174.734 31.2234 174.734 31.2234 174.681 31.2234C174.521 31.2234 174.468 31.2234 174.415 31.2234C174.308 31.2234 174.202 31.2234 174.096 31.2766C173.989 31.3298 173.936 31.3298 173.83 31.383C173.936 31.5426 173.989 31.7022 174.043 31.9149C174.096 32.1277 174.096 32.3405 174.096 32.6064C174.096 33.2447 173.883 33.7766 173.404 34.149C172.926 34.5213 172.34 34.7341 171.596 34.7341C171.436 34.7341 171.33 34.7341 171.223 34.7341C171.117 34.7341 171.011 34.6809 170.904 34.6809C170.745 34.7341 170.638 34.7873 170.585 34.8937C170.532 35 170.479 35.0532 170.479 35.1596C170.479 35.4256 170.904 35.5851 171.755 35.6383C171.968 35.6383 172.128 35.6915 172.234 35.6915C173.191 35.7447 173.83 35.9043 174.149 36.1702C174.468 36.4362 174.681 36.8617 174.681 37.3937C174.681 38.0851 174.415 38.5639 173.883 38.9362C173.351 39.3085 172.553 39.4681 171.543 39.4681C170.638 39.4681 169.894 39.3085 169.415 39.0426C168.936 38.7766 168.67 38.3511 168.67 37.8192C168.67 37.5 168.777 37.2873 168.936 37.0745C169.096 36.8617 169.362 36.649 169.787 36.4894ZM170.798 36.8085C170.532 36.9149 170.372 37.0213 170.266 37.1277C170.16 37.2341 170.106 37.3405 170.106 37.5C170.106 37.7128 170.213 37.9256 170.479 38.032C170.745 38.1383 171.011 38.2447 171.436 38.2447C171.968 38.2447 172.394 38.1915 172.713 38.032C173.032 37.8724 173.191 37.6596 173.191 37.4468C173.191 37.2873 173.138 37.1277 172.979 37.0745C172.819 37.0213 172.606 36.9149 172.287 36.9149L170.798 36.8085ZM170.425 32.5C170.425 32.8192 170.532 33.0851 170.691 33.2447C170.851 33.4043 171.17 33.5107 171.489 33.5107C171.808 33.5107 172.074 33.4043 172.287 33.1915C172.5 32.9788 172.606 32.7128 172.606 32.3936C172.606 32.0745 172.5 31.8085 172.287 31.5958C172.074 31.383 171.808 31.2766 171.489 31.2766C171.17 31.2766 170.904 31.383 170.745 31.5958C170.585 31.8085 170.425 32.1277 170.425 32.5Z" fill="#201600"/>
<path d="M69.8032 25.0531L66.9841 20.7978C66.6649 20.3191 66.133 19.9999 65.6011 19.9467L63.899 17.3936C66.1862 15.1063 66.5586 11.4361 64.6969 8.61695C62.5692 5.42546 58.2075 4.5212 55.016 6.70205C51.8245 8.82972 50.9203 13.1914 53.1011 16.3829C55.016 19.2553 58.6862 20.2659 61.7181 18.9361L63.3671 21.4361C63.2075 21.968 63.3139 22.5531 63.633 23.0319L66.4522 27.2872C67.0905 28.1914 68.3139 28.4574 69.2181 27.8191C70.1224 27.234 70.3884 26.0106 69.8032 25.0531ZM55.3883 14.8404C54.1117 12.9255 54.6437 10.3191 56.5586 9.09567C58.4734 7.81908 61.0798 8.35099 62.3032 10.2659C63.5798 12.1808 63.0479 14.7872 61.133 16.0106C59.2713 17.234 56.6649 16.7553 55.3883 14.8404Z" fill="#FFA300"/>
<path d="M33.1381 35.532C34.6363 35.532 35.8508 34.3174 35.8508 32.8192C35.8508 31.321 34.6363 30.1064 33.1381 30.1064C31.6398 30.1064 30.4253 31.321 30.4253 32.8192C30.4253 34.3174 31.6398 35.532 33.1381 35.532Z" fill="#FFA300"/>
<path d="M113.351 35.4788C114.849 35.4788 116.063 34.2642 116.063 32.766C116.063 31.2678 114.849 30.0532 113.351 30.0532C111.852 30.0532 110.638 31.2678 110.638 32.766C110.638 34.2642 111.852 35.4788 113.351 35.4788Z" fill="#FFA300"/>
<path d="M24.3614 32.5002C24.3614 30.6202 22.8375 29.0959 20.9575 29.0957C19.0774 29.0957 17.553 30.6201 17.553 32.5002C17.5531 34.3802 19.0774 35.9042 20.9575 35.9042C22.8374 35.904 24.3613 34.3802 24.3614 32.5002ZM25.9572 32.5002C25.9571 35.2615 23.7188 37.4998 20.9575 37.4999C18.1961 37.4999 15.9574 35.2615 15.9573 32.5002C15.9573 29.7388 18.1961 27.5 20.9575 27.5C23.7188 27.5001 25.9572 29.7389 25.9572 32.5002Z" fill="black"/>
<path d="M20.9572 33.5107C21.5153 33.5107 21.9678 33.0582 21.9678 32.5C21.9678 31.9419 21.5153 31.4894 20.9572 31.4894C20.399 31.4894 19.9465 31.9419 19.9465 32.5C19.9465 33.0582 20.399 33.5107 20.9572 33.5107Z" fill="black"/>
</svg>
